<svg id="users" xmlns="http://www.w3.org/2000/svg" width="27.26" height="21.202" viewBox="0 0 27.26 21.202">
  <path id="users-2" data-name="users" d="M13.116,7.543a4.543,4.543,0,1,1-1.331-3.213A4.543,4.543,0,0,1,13.116,7.543Zm12.116,0A4.543,4.543,0,1,1,23.9,4.331,4.542,4.542,0,0,1,25.231,7.543ZM19.067,24.2a10.854,10.854,0,0,0,.106-1.514A10.556,10.556,0,0,0,16.9,16.13,7.572,7.572,0,0,1,28.26,22.688V24.2Zm-10.5-9.087a7.572,7.572,0,0,1,7.572,7.572V24.2H1V22.688a7.572,7.572,0,0,1,7.572-7.572Z" transform="translate(-1 -3)" fill="#222e8e"/>
</svg>
