<svg width="24" height="24" viewBox="0 0 24 24" fill="none" xmlns="http://www.w3.org/2000/svg">
<path d="M6.15411 21.2312H4.92333C4.67851 21.2312 4.44372 21.134 4.27061 20.9609C4.0975 20.7878 4.00024 20.553 4.00024 20.3082V14.7696C4.00024 14.5248 4.0975 14.29 4.27061 14.1169C4.44372 13.9438 4.67851 13.8466 4.92333 13.8466H6.15411C6.39893 13.8466 6.63372 13.9438 6.80683 14.1169C6.97994 14.29 7.0772 14.5248 7.0772 14.7696V20.3082C7.0772 20.553 6.97994 20.7878 6.80683 20.9609C6.63372 21.134 6.39893 21.2312 6.15411 21.2312Z" fill="#597CE9"/>
<path d="M14.7699 21.2301H13.5391C13.2943 21.2301 13.0595 21.1329 12.8864 20.9597C12.7133 20.7866 12.616 20.5518 12.616 20.307V11.0762C12.616 10.8313 12.7133 10.5966 12.8864 10.4234C13.0595 10.2503 13.2943 10.1531 13.5391 10.1531H14.7699C15.0147 10.1531 15.2495 10.2503 15.4226 10.4234C15.5957 10.5966 15.693 10.8313 15.693 11.0762V20.307C15.693 20.5518 15.5957 20.7866 15.4226 20.9597C15.2495 21.1329 15.0147 21.2301 14.7699 21.2301Z" fill="#597CE9"/>
<path d="M19.0767 21.2308H17.8459C17.6011 21.2308 17.3663 21.1335 17.1932 20.9604C17.02 20.7873 16.9228 20.5525 16.9228 20.3077V6.76909C16.9228 6.52428 17.02 6.28949 17.1932 6.11637C17.3663 5.94326 17.6011 5.84601 17.8459 5.84601H19.0767C19.3215 5.84601 19.5563 5.94326 19.7294 6.11637C19.9025 6.28949 19.9997 6.52428 19.9997 6.76909V20.3077C19.9997 20.5525 19.9025 20.7873 19.7294 20.9604C19.5563 21.1335 19.3215 21.2308 19.0767 21.2308Z" fill="#597CE9"/>
<path d="M10.4614 21.2304H9.23064C8.98582 21.2304 8.75103 21.1331 8.57792 20.96C8.40481 20.7869 8.30756 20.5521 8.30756 20.3073V3.69176C8.30756 3.44695 8.40481 3.21215 8.57792 3.03904C8.75103 2.86593 8.98582 2.76868 9.23064 2.76868H10.4614C10.7062 2.76868 10.941 2.86593 11.1141 3.03904C11.2873 3.21215 11.3845 3.44695 11.3845 3.69176V20.3073C11.3845 20.5521 11.2873 20.7869 11.1141 20.96C10.941 21.1331 10.7062 21.2304 10.4614 21.2304Z" fill="#597CE9"/>
</svg>
