<svg xmlns="http://www.w3.org/2000/svg" width="18.185" height="24.464" viewBox="0 0 18.185 24.464">
  <g id="reports-menu" transform="translate(-605.709 -489.267)">
    <path id="Trazado_320" data-name="Trazado 320" d="M618.845,491.437v1.492a.657.657,0,0,1-.636.676h-8.155a.656.656,0,0,1-.635-.676v-1.492a2.26,2.26,0,0,1,2.356-2.17h4.713A2.276,2.276,0,0,1,618.845,491.437Z" transform="translate(0.669 0)" fill="#222e8e"/>
    <path id="Trazado_321" data-name="Trazado 321" d="M622.378,492.764h-1.515v.508a1.5,1.5,0,0,1-1.516,1.467h-9.092a1.487,1.487,0,0,1-1.515-1.467v-.508h-1.516a1.487,1.487,0,0,0-1.515,1.467v17.594a1.486,1.486,0,0,0,1.515,1.467h15.154a1.5,1.5,0,0,0,1.516-1.467V494.231A1.5,1.5,0,0,0,622.378,492.764Zm-6.24,14.144h-5.347a1.213,1.213,0,1,1,0-2.413h5.347a1.213,1.213,0,1,1,0,2.413Zm2.674-5h-8.021a1.294,1.294,0,1,1,0-2.587h8.021a1.294,1.294,0,1,1,0,2.587Z" transform="translate(0 0.439)" fill="#222e8e"/>
  </g>
</svg>
