<svg width="24" height="24" viewBox="0 0 24 24" fill="none" xmlns="http://www.w3.org/2000/svg">
<path d="M5.24324 7.13511C5.24324 4.89612 7.0583 3.08105 9.2973 3.08105C11.5363 3.08105 13.3514 4.89612 13.3514 7.13511C13.3514 9.3741 11.5363 11.1892 9.2973 11.1892C7.0583 11.1892 5.24324 9.3741 5.24324 7.13511Z" fill="#91ABED"/>
<path d="M12.9182 3.4939C13.8535 4.42396 14.4324 5.71192 14.4324 7.13511C14.4324 8.55829 13.8535 9.84625 12.9182 10.7763C13.4567 11.0407 14.0624 11.1892 14.7027 11.1892C16.9417 11.1892 18.7568 9.3741 18.7568 7.13511C18.7568 4.89612 16.9417 3.08105 14.7027 3.08105C14.0624 3.08105 13.4567 3.22952 12.9182 3.4939Z" fill="#91ABED"/>
<path d="M2 16.8648C2 14.6258 3.81506 12.8108 6.05405 12.8108H12.5405C14.7795 12.8108 16.5946 14.6258 16.5946 16.8648C16.5946 20.3784 14.7795 20.9189 12.5405 20.9189H6.05405C3.81506 20.9189 2 20.3784 2 16.8648Z" fill="#91ABED"/>
<path d="M17.6757 16.8648C17.6757 18.2162 17.6757 18.7567 17.1351 19.8378H17.9459C20.1849 19.8378 22 19.2973 22 15.7838C22 13.5448 20.1849 11.7297 17.9459 11.7297H12.9182C15.7543 11.7297 17.6757 14.4324 17.6757 16.8648Z" fill="#91ABED"/>
</svg>
