<svg id="truck" xmlns="http://www.w3.org/2000/svg" width="26.104" height="22.841" viewBox="0 0 26.104 22.841">
  <path id="Trazado_112" data-name="Trazado 112" d="M9.894,17.447a2.447,2.447,0,1,1-.717-1.731A2.447,2.447,0,0,1,9.894,17.447Zm11.42,0a2.447,2.447,0,1,1-.717-1.731A2.447,2.447,0,0,1,21.315,17.447Z" transform="translate(-0.106 2.946)" fill="#222e8e"/>
  <path id="Trazado_113" data-name="Trazado 113" d="M3.631,4A1.631,1.631,0,0,0,2,5.631V21.946a1.631,1.631,0,0,0,1.631,1.631H5.345a4.079,4.079,0,0,1,7.994,0h1.713a1.632,1.632,0,0,0,1.631-1.631V5.631A1.631,1.631,0,0,0,15.052,4ZM20.967,8.894a1.631,1.631,0,0,0-1.631,1.631V20.4a7.778,7.778,0,0,1,2.2-.008,4.079,4.079,0,0,1,3.221,3.19h1.713A1.632,1.632,0,0,0,28.1,21.946V13.789a1.631,1.631,0,0,0-.478-1.153L24.363,9.372a1.631,1.631,0,0,0-1.153-.478Z" transform="translate(-2 -4)" fill="#222e8e"/>
</svg>
