<svg width="150" height="28" viewBox="0 0 150 28" fill="none" xmlns="http://www.w3.org/2000/svg">
<path d="M131.871 13.8742C131.103 13.3816 130.266 13.0531 129.429 12.6262C128.906 12.3634 128.348 12.1007 127.894 11.7394C127.127 11.1483 127.266 9.96595 128.103 9.44047C129.255 8.71794 131.173 9.11204 131.382 10.59C131.382 10.6228 131.417 10.6556 131.452 10.6556H133.196C133.231 10.6556 133.266 10.6228 133.266 10.59C133.161 9.57184 132.743 8.71793 131.975 8.15961C131.243 7.63414 130.406 7.3714 129.499 7.3714C124.895 7.3714 124.476 11.9693 126.952 13.4144C127.231 13.5786 129.673 14.7281 130.545 15.2536C131.417 15.7462 131.661 16.6658 131.312 17.3883C130.964 18.0452 130.092 18.505 129.22 18.4393C128.243 18.3736 127.511 17.881 127.231 17.1256C127.197 16.9942 127.162 16.7315 127.162 16.6001C127.162 16.5673 127.127 16.5344 127.092 16.5344H125.208C125.174 16.5344 125.139 16.5673 125.139 16.6001C125.139 17.8809 125.487 18.6035 126.394 19.2603C127.266 19.8843 128.208 20.1471 129.22 20.1471C131.801 20.1471 133.126 18.7677 133.405 17.3555C133.615 15.9761 133.196 14.7281 131.871 13.8742Z" fill="#161616"/>
<path d="M49.6576 7.63412H48.8205H47.9136C47.8787 7.63412 47.8438 7.66696 47.8438 7.66696L46.2742 12.4948C46.2394 12.5605 46.1696 12.5605 46.1347 12.4948L44.5651 7.66696C44.5651 7.63412 44.5302 7.63412 44.4954 7.63412H43.5885H42.7514H41.6352C41.6003 7.63412 41.5654 7.66697 41.5654 7.69981V20.0157C41.5654 20.0485 41.6003 20.0814 41.6352 20.0814H43.5187C43.5536 20.0814 43.5885 20.0485 43.5885 20.0157V10.6556C43.5885 10.5899 43.6931 10.5571 43.728 10.6228L45.2976 15.4834L45.4022 15.8119C45.4022 15.8447 45.4371 15.8447 45.472 15.8447H46.937C46.9718 15.8447 47.0067 15.8119 47.0067 15.8119L47.1114 15.4834L48.681 10.6228C48.7158 10.5571 48.8205 10.5571 48.8205 10.6556V20.0157C48.8205 20.0485 48.8554 20.0814 48.8902 20.0814H50.7738C50.8086 20.0814 50.8435 20.0485 50.8435 20.0157V7.69981C50.8435 7.66697 50.8086 7.63412 50.7738 7.63412H49.6576Z" fill="#161616"/>
<path d="M102.885 7.63412C102.85 7.63412 102.815 7.66696 102.815 7.66696L101.246 12.4948C101.211 12.5605 101.141 12.5605 101.106 12.4948L99.5365 7.66696C99.5365 7.63412 99.5017 7.63412 99.4668 7.63412H96.5717C96.5368 7.63412 96.502 7.66697 96.502 7.69981V20.0157C96.502 20.0485 96.5368 20.0814 96.5717 20.0814H98.4553C98.4901 20.0814 98.525 20.0485 98.525 20.0157V10.6556C98.525 10.5899 98.6297 10.5571 98.6645 10.6228L100.234 15.4834L100.339 15.8119C100.339 15.8447 100.374 15.8447 100.409 15.8447H101.874C101.908 15.8447 101.943 15.8119 101.943 15.8119L102.048 15.4834L103.618 10.6228C103.652 10.5571 103.757 10.5571 103.757 10.6556V20.0157C103.757 20.0485 103.792 20.0814 103.827 20.0814H105.71C105.745 20.0814 105.78 20.0485 105.78 20.0157V7.69981C105.78 7.66697 105.745 7.63412 105.71 7.63412H102.885Z" fill="#161616"/>
<path d="M78.4685 7.63412H74.9456H73.0621H69.5043C69.4695 7.63412 69.4346 7.66697 69.4346 7.69981V9.2434C69.4346 9.27624 69.4695 9.30908 69.5043 9.30908H72.9575V20.0157C72.9575 20.0485 72.9923 20.0814 73.0272 20.0814H74.9108C74.9456 20.0814 74.9805 20.0485 74.9805 20.0157V9.30908H78.4337C78.4685 9.30908 78.5034 9.27624 78.5034 9.2434V7.69981C78.5383 7.66697 78.5034 7.63412 78.4685 7.63412Z" fill="#161616"/>
<path d="M89.6304 20.0814H91.3395C91.3744 20.0814 91.4093 20.0485 91.4093 19.9829L87.8515 7.63413C87.8515 7.60129 87.8166 7.60129 87.7818 7.60129H87.119H85.968H85.3053C85.2704 7.60129 85.2355 7.63413 85.2355 7.63413L81.6777 19.9829C81.6777 20.0157 81.7126 20.0814 81.7475 20.0814H83.4566C83.4915 20.0814 83.5264 20.0485 83.5264 20.0485L84.5728 16.4359C84.5728 16.403 84.6077 16.403 84.6425 16.403H88.4445C88.4794 16.403 88.5143 16.4359 88.5143 16.4359L89.5607 20.0485C89.5607 20.0485 89.5955 20.0814 89.6304 20.0814ZM85.096 14.6295L86.4912 9.80172C86.5261 9.73604 86.5958 9.73604 86.6307 9.80172L88.0259 14.6295C88.0259 14.6624 87.991 14.7281 87.9562 14.7281H85.2006C85.1309 14.7281 85.096 14.6624 85.096 14.6295Z" fill="#161616"/>
<path d="M119 20.0814H120.709C120.744 20.0814 120.778 20.0485 120.778 19.9829L117.221 7.63413C117.221 7.60129 117.186 7.60129 117.151 7.60129H116.488H115.337H114.674C114.64 7.60129 114.605 7.63413 114.605 7.63413L111.047 19.9829C111.047 20.0157 111.082 20.0814 111.117 20.0814H112.826C112.861 20.0814 112.896 20.0485 112.896 20.0485L113.942 16.4359C113.942 16.403 113.977 16.403 114.012 16.403H117.814C117.849 16.403 117.883 16.4359 117.883 16.4359L118.93 20.0485C118.93 20.0485 118.965 20.0814 119 20.0814ZM114.465 14.6295L115.86 9.80172C115.895 9.73604 115.965 9.73604 116 9.80172L117.395 14.6295C117.395 14.6624 117.36 14.7281 117.325 14.7281H114.57C114.5 14.7281 114.465 14.6624 114.465 14.6295Z" fill="#161616"/>
<path d="M58.5172 18.2422V14.4325C58.5172 14.3996 58.5521 14.3668 58.587 14.3668H63.6446C63.6795 14.3668 63.7144 14.334 63.7144 14.3011V12.7575C63.7144 12.7247 63.6795 12.6918 63.6446 12.6918H58.587C58.5521 12.6918 58.5172 12.659 58.5172 12.6262V9.37477C58.5172 9.34192 58.5521 9.30908 58.587 9.30908H64.3073C64.3422 9.30908 64.3771 9.27624 64.3771 9.2434V7.69981C64.3771 7.66697 64.3422 7.63412 64.3073 7.63412H58.5172H56.5639C56.529 7.63412 56.4941 7.66697 56.4941 7.69981V9.30908V12.7247V14.3996V18.3407V20.0157C56.4941 20.0485 56.529 20.0814 56.5639 20.0814H58.5172H64.5515C64.5864 20.0814 64.6212 20.0485 64.6212 20.0157V18.4064C64.6212 18.3736 64.5864 18.3407 64.5515 18.3407H58.5521C58.5521 18.3079 58.5172 18.275 58.5172 18.2422Z" fill="#161616"/>
<path d="M149.171 19.95L142.614 13.5786C142.579 13.5458 142.579 13.5129 142.614 13.4801L148.508 7.69982C148.543 7.66697 148.508 7.60129 148.474 7.60129H146.067C146.032 7.60129 146.032 7.60129 146.032 7.63413L141.009 12.5605C140.974 12.5933 140.905 12.5605 140.905 12.5276V7.73266C140.905 7.69981 140.87 7.66697 140.835 7.66697H138.916C138.882 7.66697 138.847 7.69981 138.847 7.73266V20.0485C138.847 20.0814 138.882 20.1142 138.916 20.1142H140.8C140.835 20.1142 140.87 20.0814 140.87 20.0485V14.6295C140.87 14.5639 140.939 14.531 140.974 14.5967L146.625 20.1142L146.66 20.1471H149.067C149.171 20.0814 149.206 19.9829 149.171 19.95Z" fill="#161616"/>
<path d="M28.6253 1L17.1846 9.01353L19.3123 4.28423L28.6253 1Z" fill="#E17726" stroke="#E17726" stroke-linecap="round" stroke-linejoin="round"/>
<path d="M2.18555 1L13.5565 9.07923L11.5334 4.28424L2.18555 1Z" fill="#E27625" stroke="#E27625" stroke-linecap="round" stroke-linejoin="round"/>
<path d="M24.5089 19.5559L21.4395 23.9568L27.9969 25.6646L29.8456 19.6545L24.5089 19.5559Z" fill="#E27625" stroke="#E27625" stroke-linecap="round" stroke-linejoin="round"/>
<path d="M1 19.6545L2.84865 25.6646L9.37124 23.9568L6.33667 19.5559L1 19.6545Z" fill="#E27625" stroke="#E27625" stroke-linecap="round" stroke-linejoin="round"/>
<path d="M9.02275 12.1335L7.20898 14.7281L13.6618 14.9908L13.4525 8.42236L9.02275 12.1335Z" fill="#E27625" stroke="#E27625" stroke-linecap="round" stroke-linejoin="round"/>
<path d="M21.8236 12.1336L17.3241 8.35669L17.1846 14.9908L23.6374 14.7281L21.8236 12.1336Z" fill="#E27625" stroke="#E27625" stroke-linecap="round" stroke-linejoin="round"/>
<path d="M9.37109 23.9568L13.2777 22.1833L9.8943 19.6873L9.37109 23.9568Z" fill="#E27625" stroke="#E27625" stroke-linecap="round" stroke-linejoin="round"/>
<path d="M17.5684 22.1833L21.4401 23.9568L20.9169 19.6873L17.5684 22.1833Z" fill="#E27625" stroke="#E27625" stroke-linecap="round" stroke-linejoin="round"/>
<path d="M21.4401 23.9568L17.5684 22.1833L17.8823 24.548L17.8474 25.5661L21.4401 23.9568Z" fill="#D5BFB2" stroke="#D5BFB2" stroke-linecap="round" stroke-linejoin="round"/>
<path d="M9.37109 23.9568L12.9986 25.5661L12.9637 24.548L13.2777 22.1833L9.37109 23.9568Z" fill="#D5BFB2" stroke="#D5BFB2" stroke-linecap="round" stroke-linejoin="round"/>
<path d="M13.0681 18.1109L9.82422 17.2241L12.0914 16.2389L13.0681 18.1109Z" fill="#233447" stroke="#233447" stroke-linecap="round" stroke-linejoin="round"/>
<path d="M17.7773 18.1109L18.7191 16.2389L21.0212 17.2241L17.7773 18.1109Z" fill="#233447" stroke="#233447" stroke-linecap="round" stroke-linejoin="round"/>
<path d="M9.37148 23.9568L9.92956 19.5559L6.33691 19.6545L9.37148 23.9568Z" fill="#CC6228" stroke="#CC6228" stroke-linecap="round" stroke-linejoin="round"/>
<path d="M20.917 19.5559L21.4402 23.9568L24.5097 19.6545L20.917 19.5559Z" fill="#CC6228" stroke="#CC6228" stroke-linecap="round" stroke-linejoin="round"/>
<path d="M23.6374 14.7281L17.1846 14.9909L17.7775 18.1109L18.7193 16.2389L21.0214 17.2241L23.6374 14.7281Z" fill="#CC6228" stroke="#CC6228" stroke-linecap="round" stroke-linejoin="round"/>
<path d="M9.82499 17.2241L12.0922 16.2389L13.0688 18.1109L13.6618 14.9909L7.20898 14.7281L9.82499 17.2241Z" fill="#CC6228" stroke="#CC6228" stroke-linecap="round" stroke-linejoin="round"/>
<path d="M7.20898 14.7281L9.89476 19.6873L9.825 17.2241L7.20898 14.7281Z" fill="#E27525" stroke="#E27525" stroke-linecap="round" stroke-linejoin="round"/>
<path d="M21.0216 17.2241L20.917 19.6873L23.6376 14.7281L21.0216 17.2241Z" fill="#E27525" stroke="#E27525" stroke-linecap="round" stroke-linejoin="round"/>
<path d="M13.6613 14.9909L13.0684 18.1109L13.8008 21.8221L13.9753 16.9286L13.6613 14.9909Z" fill="#E27525" stroke="#E27525" stroke-linecap="round" stroke-linejoin="round"/>
<path d="M17.185 14.9909L16.8711 16.9286L17.0106 21.8221L17.778 18.1109L17.185 14.9909Z" fill="#E27525" stroke="#E27525" stroke-linecap="round" stroke-linejoin="round"/>
<path d="M17.7771 18.1109L17.0098 21.8221L17.5678 22.1833L20.9163 19.6873L21.021 17.2242L17.7771 18.1109Z" fill="#F5841F" stroke="#F5841F" stroke-linecap="round" stroke-linejoin="round"/>
<path d="M9.82422 17.2242L9.89398 19.6873L13.2774 22.1833L13.8006 21.8221L13.0681 18.1109L9.82422 17.2242Z" fill="#F5841F" stroke="#F5841F" stroke-linecap="round" stroke-linejoin="round"/>
<path d="M17.847 25.5661L17.8819 24.5479L17.5679 24.318H13.2428L12.9638 24.5479L12.9986 25.5661L9.37109 23.9568L10.6268 24.9421L13.2079 26.617H17.6028L20.1839 24.9421L21.4396 23.9568L17.847 25.5661Z" fill="#C0AC9D" stroke="#C0AC9D" stroke-linecap="round" stroke-linejoin="round"/>
<path d="M17.568 22.1833L17.01 21.8221H13.801L13.2778 22.1833L12.9639 24.548L13.2429 24.3181H17.568L17.882 24.548L17.568 22.1833Z" fill="#161616" stroke="#161616" stroke-linecap="round" stroke-linejoin="round"/>
<path d="M29.1137 9.53901L30.0904 5.10529L28.6254 1L17.5684 8.75079L21.8237 12.1336L27.8231 13.7757L29.1486 12.3306L28.5905 11.9365L29.4974 11.1483L28.7998 10.6228L29.7067 9.96596L29.1137 9.53901Z" fill="#763E1A" stroke="#763E1A" stroke-linecap="round" stroke-linejoin="round"/>
<path d="M0.755859 5.10529L1.7325 9.53901L1.10466 9.96596L2.01154 10.6228L1.31394 11.1483L2.2557 11.9365L1.66274 12.3306L2.98819 13.7757L9.02245 12.1336L13.2778 8.75079L2.18594 1L0.755859 5.10529Z" fill="#763E1A" stroke="#763E1A" stroke-linecap="round" stroke-linejoin="round"/>
<path d="M27.8223 13.7757L21.8229 12.1336L23.6367 14.7281L20.916 19.6873L24.5087 19.6545H29.8453L27.8223 13.7757Z" fill="#F5841F" stroke="#F5841F" stroke-linecap="round" stroke-linejoin="round"/>
<path d="M9.02244 12.1336L2.98817 13.7757L1 19.6545H6.33666L9.89444 19.6873L7.20867 14.7281L9.02244 12.1336Z" fill="#F5841F" stroke="#F5841F" stroke-linecap="round" stroke-linejoin="round"/>
<path d="M17.1848 14.9908L17.5684 8.7508L19.3124 4.28424H11.5342L13.2782 8.7508L13.6619 14.9908L13.8014 16.9614V21.8221H17.0104V16.9614L17.1848 14.9908Z" fill="#F5841F" stroke="#F5841F" stroke-linecap="round" stroke-linejoin="round"/>
</svg>
