<svg width="108" height="108" viewBox="0 0 108 108" fill="none" xmlns="http://www.w3.org/2000/svg">
<path d="M72.4903 63.6159C73.2492 63.6159 74.0037 63.9537 74.9907 64.1905C70.854 71.6919 64.4011 74.9337 56.4611 75.3724C51.0961 75.6663 45.7005 75.4119 40.3179 75.4645C39.1028 75.4645 38.6597 75.1092 38.6948 73.8546C38.7737 70.9461 38.7518 68.0333 38.6948 65.1249C38.6948 64.0238 39.0282 63.572 40.1863 63.572C50.9601 63.5896 61.7252 63.5896 72.4903 63.6159Z" fill="#F4AB37"/>
<path d="M38.6904 42.5331C38.7825 39.629 38.7562 36.7206 38.6904 33.8166C38.6904 32.6936 39.0677 32.233 40.1907 32.2593C46.5076 32.4084 52.8508 31.7943 59.137 32.5883C65.7172 33.4218 70.7663 36.8127 74.2977 42.4541C75.175 43.8447 75.1004 44.4281 73.2273 44.3974C67.7789 44.3185 62.3306 44.3711 56.8779 44.3711C51.4252 44.3711 45.9768 44.3272 40.5285 44.4018C39.0896 44.4281 38.6509 43.9675 38.6904 42.5331Z" fill="#F4AB37"/>
<path d="M77.1622 52.8287C76.9648 57.9963 77.7895 57.1058 72.7228 57.1628C67.779 57.2111 62.8351 57.1628 57.8912 57.1628C52.149 57.1628 46.4067 57.119 40.6644 57.1935C39.1773 57.1935 38.6729 56.8075 38.6773 55.2502C38.6773 50.4643 38.6334 50.4643 43.5027 50.4643C53.8993 50.4643 64.2959 50.5125 74.6881 50.4204C76.5437 50.4292 77.2543 50.8678 77.1622 52.8287Z" fill="#F4AB37"/>
<path d="M54.0044 5C44.3128 4.99913 34.8385 7.87231 26.7798 13.2562C18.7212 18.64 12.44 26.2927 8.73076 35.2465C5.02152 44.2002 4.05079 54.0529 5.94133 63.5583C7.83187 73.0638 12.4988 81.7952 19.3518 88.6482C26.2049 95.5013 34.9362 100.168 44.4417 102.059C53.9471 103.949 63.7998 102.978 72.7535 99.2692C81.7073 95.56 89.36 89.2789 94.7438 81.2202C100.128 73.1615 103.001 63.6873 103 53.9956C102.999 41.0015 97.8365 28.54 88.6483 19.3518C79.4601 10.1636 66.9985 5.00116 54.0044 5ZM89.2081 59.5098C89.0721 63.7561 89.1642 63.8482 84.9442 63.7166C82.9877 63.6596 81.9831 64.1773 81.0268 66.0899C76.061 76.0039 67.5025 80.6012 56.7681 81.1496C49.3764 81.5269 41.9452 81.1935 34.5316 81.2768C33.0357 81.2768 32.7287 80.7548 32.7506 79.3949C32.8208 74.8897 32.6892 70.3801 32.8208 65.8793C32.8734 64.0939 32.2681 63.5806 30.6011 63.7473C29.3772 63.8702 28.1226 63.6728 26.8987 63.7956C25.3019 63.9535 24.9642 63.2648 24.9685 61.7996C24.9685 57.4129 24.9203 57.4129 29.3289 57.4129C29.8358 57.38 30.3443 57.38 30.8511 57.4129C32.3865 57.6015 32.8164 56.9479 32.812 55.4432C32.812 50.688 32.8603 50.7187 28.2191 50.6661C27.1838 50.6661 25.587 51.2627 25.2186 50.2274C24.6527 48.556 24.8413 46.6346 25.1659 44.8448C25.2712 44.2789 25.9906 44.3667 26.4819 44.3623C28.0085 44.3623 29.5526 44.2921 31.0617 44.3623C32.3777 44.4325 32.8164 43.9236 32.8164 42.6076C32.7506 37.9577 32.8471 33.3033 32.7594 28.6533C32.733 27.1706 33.1015 26.6311 34.6764 26.6749C38.5981 26.7802 42.5243 26.71 47.2488 26.71C52.0216 26.9337 57.6498 26.1354 63.1552 27.5874C71.6304 29.8509 78.0219 34.6632 81.6409 42.8006C82.1235 43.8798 82.663 44.4895 83.8826 44.2965C84.1001 44.2789 84.3187 44.2789 84.5362 44.2965C89.5283 44.2965 89.4888 44.2965 89.1949 49.2447C89.1247 50.4248 88.6773 50.6661 87.6113 50.6968C83.8738 50.8152 83.8738 50.8547 83.8563 54.3685C83.8563 57.3427 83.8562 57.4392 87.0147 57.3383C88.6904 57.2988 89.2827 57.7243 89.2256 59.5098H89.2081Z" fill="#F4AB37"/>
</svg>
