<svg width="108" height="108" viewBox="0 0 108 108" fill="none" xmlns="http://www.w3.org/2000/svg">
<g clip-path="url(#clip0_789_893)">
<path d="M24.9922 54.8143C27.7917 49.3322 31.1924 44.179 34.3366 38.891C40.5213 28.4891 46.7608 18.1181 53.0548 7.77812C53.328 7.32269 53.6265 5.40397 54.6689 7.35643C53.8619 8.02271 54.2192 8.94201 54.2192 9.74324C54.1912 20.4037 54.1827 31.0671 54.1939 41.7332L53.6517 42.2097C49.4482 43.2682 45.7785 45.6297 41.8356 47.3123C36.1945 49.7412 30.6123 52.3094 24.9922 54.8143Z" fill="#8991B1"/>
<path d="M54.2015 41.7454C54.2015 31.0793 54.2099 20.416 54.2268 9.75546C54.2268 8.95424 53.8694 8.03493 54.6765 7.36865C64.0167 22.8984 73.3541 38.4309 82.6887 53.9662C82.8189 54.2368 82.923 54.5192 82.9997 54.8096C73.2854 50.7107 63.7645 46.1775 54.2015 41.7454Z" fill="#62688F"/>
<path d="M24.9917 54.8138C30.6034 52.3089 36.1856 49.7534 41.8351 47.3245C45.778 45.6377 49.4351 43.2804 53.6512 42.2219C54.5886 42.9219 54.1935 43.9382 54.1977 44.8111C54.2313 53.8819 54.2229 62.9441 54.2271 72.0191C53.6512 72.2004 53.1972 71.9347 52.7222 71.6522C43.7183 66.3107 34.7116 60.9692 25.7021 55.6277C25.412 55.4421 24.9917 55.2861 24.9917 54.8138Z" fill="#62688E"/>
<path d="M54.2351 72.0193C54.2351 62.9485 54.2351 53.8863 54.2057 44.8113C54.2057 43.9384 54.5966 42.9221 53.6592 42.2221L54.2014 41.7456C63.7644 46.1776 73.2854 50.7109 82.9997 54.8182C82.9997 55.4086 82.4574 55.514 82.0917 55.7291C73.0934 61.0706 64.0881 66.4037 55.0758 71.7283C54.8055 71.8521 54.524 71.9496 54.2351 72.0193Z" fill="#454A75"/>
<path d="M53.7731 78.0284L81.8862 61.5105C82.3065 62.6027 81.6087 63.0413 81.2514 63.5473C72.5894 75.8074 63.9021 88.0521 55.1897 100.281C54.8408 100.779 54.7694 101.783 53.7017 101.424C53.7325 93.6228 53.7563 85.8242 53.7731 78.0284Z" fill="#63698F"/>
<path d="M53.773 78.0283C53.7506 85.8269 53.731 93.6255 53.7141 101.424C48.8086 94.5842 43.8821 87.7611 39.0019 80.9043C35.0548 75.3674 31.1539 69.7968 27.232 64.2346C26.7486 63.5473 26.3073 62.8346 25.8491 62.1261L26.2695 61.4978L53.773 78.0283Z" fill="#8991B1"/>
</g>
<defs>
<clipPath id="clip0_789_893">
<rect width="58" height="95" fill="white" transform="translate(25 6.5)"/>
</clipPath>
</defs>
</svg>
