<svg width="108" height="108" viewBox="0 0 108 108" fill="none" xmlns="http://www.w3.org/2000/svg">
<path d="M53.7839 5H54.2266C54.8509 5.51841 55.391 6.22573 56.1038 6.52447C60.6862 8.46192 64.7196 11.3571 69.054 13.7163C74.2164 16.5236 79.1575 19.7351 84.2711 22.6391C88.1363 24.8357 92.1342 26.7864 95.8843 29.229C96.8672 29.8617 96.9734 30.3142 96.9734 31.1489C96.9734 46.5167 96.9823 61.8829 97 77.2478C97 78.3153 96.7122 78.9084 95.7381 79.4444C82.3585 87.1005 69.0009 94.7946 55.6655 102.527C54.7003 103.085 53.9388 103.203 52.8762 102.588C39.3755 94.8415 25.8527 87.14 12.3077 79.4839C11.8859 79.3001 11.5333 78.9887 11.3004 78.5942C11.0674 78.1998 10.966 77.7424 11.0105 77.2873C11.0459 61.8463 11.0459 46.4068 11.0105 30.9688C10.9672 30.5478 11.0585 30.124 11.2715 29.7573C11.4844 29.3907 11.8082 29.0998 12.197 28.9259C15.7788 26.9533 19.3163 24.8928 22.8627 22.8456C33.1727 16.897 43.4798 10.9485 53.7839 5ZM78.8254 54.262C78.8254 50.0401 78.7856 45.8181 78.852 41.5962C78.852 40.4451 78.5509 39.7554 77.5237 39.1667C70.0856 34.9579 62.6727 30.711 55.2848 26.4261C54.8991 26.1681 54.4427 26.0343 53.9776 26.043C53.5126 26.0516 53.0615 26.2023 52.6859 26.4744C45.2862 30.7535 37.8761 35.0091 30.4557 39.2414C29.7252 39.6587 29.1851 40.0409 29.1895 41.0426C29.2293 49.8512 29.2161 58.6597 29.1895 67.4683C29.1895 68.0877 29.3179 68.7863 29.8226 69.0015C33.1033 70.4689 35.897 72.8018 39.0892 74.3394C43.5609 76.4921 47.6209 79.3126 52.0085 81.5928C53.3367 82.2781 54.2222 82.5461 55.4884 81.808C62.7582 77.6051 70.0458 73.43 77.351 69.2827C78.4402 68.6633 78.8873 67.9955 78.8564 66.7214C78.7545 62.5522 78.8254 58.4093 78.8254 54.262Z" fill="#2A5AD9"/>
</svg>
