<svg width="108" height="108" viewBox="0 0 108 108" fill="none" xmlns="http://www.w3.org/2000/svg">
<path d="M53.7491 7H54.3056C54.3937 7.02487 54.4836 7.04254 54.5745 7.05284C55.1796 7.07549 55.7847 7.05284 56.386 7.11323C57.5065 7.19249 58.6269 7.28308 59.7474 7.39631C61.3961 7.579 63.0316 7.86769 64.6439 8.26063C73.6353 10.3735 81.7979 15.1509 88.0859 21.9807C94.374 28.8105 98.5013 37.3818 99.9391 46.5966C100.228 48.3865 100.405 50.193 100.469 52.0053C100.518 53.4659 100.496 54.9304 100.432 56.3948C100.38 57.6479 100.279 58.9048 100.103 60.1503C99.8868 61.694 99.6329 63.2415 99.293 64.7625C98.343 68.9656 96.8089 73.0116 94.7363 76.78C89.3226 86.69 80.5426 94.2849 70.0185 98.1617C66.6883 99.4002 63.224 100.234 59.6989 100.645C58.4738 100.785 57.2375 100.887 56.005 100.958C55.1758 101.011 54.3467 101.008 53.5175 100.981C52.229 100.936 50.9367 100.883 49.6481 100.777C48.5949 100.69 47.5416 100.558 46.4958 100.4C44.4093 100.065 42.3487 99.5823 40.3295 98.9543C34.3533 97.1079 28.8097 94.0558 24.0339 89.9827C19.7583 86.3464 16.1697 81.9577 13.4416 77.0292C11.5527 73.6238 10.0947 69.9921 9.10163 66.2194C8.56651 64.2278 8.1758 62.1994 7.93259 60.1503C7.80933 59.0897 7.6973 58.0216 7.61886 56.9572C7.56284 56.1759 7.57031 55.3908 7.5479 54.6096C7.53741 54.509 7.51993 54.4094 7.49561 54.3114V53.749C7.52029 53.6434 7.53777 53.5362 7.5479 53.4282C7.54139 51.8406 7.63995 50.2544 7.84295 48.6801C8.06331 47.1175 8.28368 45.5511 8.58994 44.0074C9.33627 40.3945 10.5231 36.8891 12.1232 33.5714C16.8173 23.7366 24.7561 15.8623 34.5739 11.3028C36.5944 10.3644 38.6804 9.57721 40.815 8.94756C43.1596 8.24338 45.5583 7.73838 47.9861 7.43783C49.0356 7.31327 50.0926 7.20382 51.1458 7.12455C51.919 7.06794 52.6959 7.07549 53.469 7.05284C53.5637 7.04315 53.6574 7.02547 53.7491 7ZM51.0749 74.338V76.5234C51.0689 76.8481 51.173 77.165 51.37 77.4217C51.5416 77.6459 51.761 77.8281 52.0119 77.9549C52.2627 78.0816 52.5387 78.1497 52.8191 78.1539C53.6782 78.1803 54.5409 78.1539 55.3999 78.1539C55.6347 78.1608 55.8684 78.1189 56.0866 78.0309C56.3047 77.9429 56.5027 77.8106 56.6683 77.6422C56.8338 77.4738 56.9635 77.273 57.0492 77.052C57.1349 76.831 57.1748 76.5945 57.1666 76.3573V72.2055C57.1666 71.8545 57.1666 71.8583 57.5065 71.7941C59.6165 71.4275 61.5975 70.5175 63.2583 69.1521C64.2966 68.3123 65.1504 67.263 65.7652 66.0711C66.38 64.8793 66.7422 63.5711 66.8289 62.23C66.9231 61.0655 66.8501 59.8934 66.6122 58.75C66.4342 57.7681 66.0644 56.8319 65.5244 55.9959C64.9845 55.16 64.2852 54.4411 63.4674 53.8811C62.0556 52.967 60.4935 52.3151 58.8548 51.9562C57.0359 51.492 55.1684 51.3297 53.3233 51.0126C52.1964 50.8492 51.096 50.5344 50.0515 50.0766C49.0505 49.6123 48.2363 48.9443 47.8927 47.8459C47.6693 47.0941 47.6081 46.3025 47.7134 45.5247C47.7829 44.8059 48.0504 44.1211 48.4854 43.548C48.9205 42.975 49.5057 42.5366 50.1748 42.2826C50.9263 41.9662 51.726 41.7823 52.539 41.739C53.6359 41.6431 54.7408 41.7105 55.8183 41.9391C57.0045 42.168 58.0671 42.8271 58.8062 43.7923C59.2381 44.3859 59.5723 45.0461 59.796 45.7474C59.8935 46.0563 60.0882 46.3244 60.3505 46.5111C60.6128 46.6978 60.9282 46.7928 61.2489 46.7816H64.319C64.427 46.7836 64.5349 46.7721 64.6402 46.7476C64.826 46.708 65.0016 46.6295 65.1557 46.5173C65.3097 46.4051 65.4389 46.2616 65.5349 46.096C65.6309 45.9305 65.6916 45.7464 65.7131 45.5557C65.7346 45.3651 65.7165 45.1719 65.6598 44.9888C65.2648 42.9637 64.248 41.1161 62.754 39.7087C61.2601 38.3013 59.365 37.4058 57.3384 37.1495C56.9836 37.1042 56.9836 37.1117 56.9836 36.7494V32.6655C56.9914 32.4285 56.9509 32.1923 56.8647 31.9717C56.7785 31.7511 56.6484 31.5507 56.4824 31.3829C56.3164 31.2152 56.1181 31.0837 55.8998 30.9966C55.6815 30.9095 55.4478 30.8686 55.2132 30.8765H52.5128C52.4052 30.8739 52.2975 30.8827 52.1916 30.9029C51.8226 31.0063 51.4966 31.2276 51.2623 31.5338C51.0281 31.8399 50.8981 32.2144 50.8919 32.6014C50.8919 33.9551 50.8919 35.3101 50.8919 36.6663C50.8919 36.8777 50.8471 36.9872 50.6155 36.9947C50.438 37.012 50.262 37.0423 50.0889 37.0853C47.9848 37.4462 46.0195 38.385 44.408 39.799C43.527 40.5759 42.8087 41.5232 42.2955 42.585C41.7824 43.6467 41.4847 44.8016 41.4201 45.9814C41.3571 46.9588 41.416 47.9403 41.5956 48.9028C41.8549 50.5435 42.6426 52.0519 43.8366 53.1942C44.8148 54.0841 45.9571 54.7702 47.198 55.2135C49.144 55.898 51.1597 56.3601 53.2075 56.5911C54.6811 56.7849 56.1298 57.1379 57.5289 57.6441C58.146 57.8585 58.7248 58.1721 59.2432 58.5726C59.6286 58.8782 59.9461 59.2623 60.1752 59.6999C60.4042 60.1375 60.5397 60.6188 60.5728 61.1127C60.7292 62.2064 60.5217 63.3217 59.9827 64.2832C59.2231 65.5438 57.9992 66.4479 56.5802 66.7969C55.5939 67.0726 54.568 67.1748 53.5474 67.0989C52.6191 67.063 51.6986 66.9135 50.806 66.6535C49.4981 66.2842 48.3837 65.4152 47.6985 64.2304C47.3365 63.5463 47.0748 62.8127 46.9216 62.0526C46.8657 61.7071 46.6876 61.3938 46.4204 61.171C46.1532 60.9482 45.815 60.8309 45.4687 60.841C44.408 60.8221 43.3436 60.8183 42.2828 60.841C42.0771 60.8271 41.8709 60.8606 41.6798 60.939C41.4887 61.0173 41.3177 61.1384 41.1796 61.2932C41.0415 61.448 40.94 61.6324 40.8827 61.8326C40.8253 62.0328 40.8137 62.2435 40.8486 62.4489C41.0115 63.6695 41.3738 64.8544 41.9205 65.9552C43.1232 68.3708 45.0467 69.956 47.5229 70.9374C48.6214 71.3652 49.7621 71.6727 50.9255 71.8545C51.0973 71.8847 51.1347 71.9564 51.1347 72.115C51.0712 72.851 51.0749 73.5945 51.0749 74.338ZM89.0891 54.7341C89.0256 53.6697 89.0032 52.5978 88.8912 51.5335C88.7605 50.2842 88.6036 49.0311 88.3683 47.8006C86.5855 38.6836 81.3389 30.6352 73.7534 25.381C70.8957 23.4091 67.7725 21.8622 64.4796 20.7877C64.294 20.7342 64.1002 20.7163 63.9082 20.7348C63.2097 20.7726 62.7354 21.6897 62.7167 22.2748C62.6868 23.2599 62.7167 24.2487 62.7167 25.2376C62.7506 25.6835 62.9031 26.1119 63.1582 26.4773C63.4133 26.8428 63.7615 27.1317 64.1658 27.3135C65.416 27.7804 66.6328 28.3341 67.8074 28.9705C71.2032 30.8066 74.1934 33.3223 76.5957 36.3644C79.4233 39.92 81.388 44.0951 82.3326 48.5555C82.6769 50.1448 82.8844 51.7612 82.9526 53.3867C82.99 54.3568 82.975 55.3282 82.9078 56.2967C82.8256 57.429 82.7173 58.5877 82.5343 59.7162C82.0053 62.6948 81.0345 65.5756 79.6546 68.2614C77.9721 71.56 75.6637 74.4918 72.8608 76.8895C70.2704 79.1362 67.308 80.9032 64.1098 82.1094C63.6861 82.241 63.3181 82.5119 63.0643 82.8792C62.8105 83.2465 62.6855 83.6889 62.7092 84.1362C62.7092 85.0685 62.7092 86.0008 62.7092 86.933C62.7229 87.1813 62.7707 87.4265 62.8512 87.6615C63.0155 88.1748 63.7438 88.6956 64.319 88.5032C64.5319 88.4314 64.7336 88.3333 64.9427 88.2616C67.2295 87.5131 69.4346 86.5305 71.5237 85.3289C76.3468 82.5334 80.4389 78.6132 83.4586 73.8953C86.4784 69.1773 88.3384 63.7983 88.8837 58.2065C88.9995 57.0591 89.0219 55.9004 89.0891 54.7341ZM18.9694 54.4586C18.9723 55.8373 19.0671 57.2143 19.2532 58.5802C19.4511 59.9125 19.6491 61.2524 19.9404 62.5696C20.6292 65.6276 21.7367 68.5736 23.2309 71.3223C25.4776 75.5368 28.5565 79.2404 32.2769 82.2038C35.6502 84.8827 39.4719 86.9281 43.5602 88.2427C43.7738 88.3331 44.0101 88.3529 44.2355 88.2993C44.4609 88.2458 44.6638 88.1216 44.8151 87.9445C45.1441 87.5967 45.3343 87.1384 45.3492 86.6575C45.3492 85.7856 45.3492 84.9175 45.3492 84.0457C45.3271 83.5814 45.1749 83.1331 44.9104 82.7529C44.6459 82.3727 44.28 82.0763 43.8553 81.8981C43.0224 81.5659 42.182 81.23 41.3753 80.8375C37.8164 79.1188 34.6534 76.6656 32.0902 73.636C29.3865 70.4603 27.3882 66.7356 26.2301 62.7131C25.5855 60.4898 25.2092 58.196 25.1096 55.8815C25.0673 54.8964 25.081 53.9097 25.1507 52.9262C25.2172 51.7794 25.3418 50.6368 25.5242 49.5029C26.0573 46.5091 27.0358 43.6141 28.4262 40.9162C30.016 37.7928 32.1695 34.9971 34.7756 32.6731C37.4589 30.2634 40.5617 28.3782 43.9262 27.1135C44.3453 26.9813 44.7093 26.7126 44.9614 26.3494C45.2134 25.9861 45.3393 25.5487 45.3194 25.1055C45.3194 24.1657 45.3194 23.2183 45.3194 22.2823C45.3131 22.0489 45.269 21.8181 45.1886 21.5992C45.0861 21.296 44.8781 21.0408 44.6032 20.8811C44.3284 20.7214 44.0055 20.6681 43.6946 20.7311C43.4959 20.7956 43.3013 20.8725 43.112 20.9613C41.2477 21.5737 39.4364 22.34 37.6963 23.2523C32.5657 25.9614 28.1841 29.92 24.9477 34.7702C21.7112 39.6204 19.722 45.2093 19.1598 51.0315C19.0552 52.1562 19.0328 53.3074 18.9694 54.4586Z" fill="#3E54D3"/>
</svg>
