<svg width="108" height="108" viewBox="0 0 108 108" fill="none" xmlns="http://www.w3.org/2000/svg">
<path d="M55.9136 5.5H102.279C102.458 5.5 102.5 5.54217 102.5 5.72141C102.5 37.9071 102.5 70.0929 102.5 102.279C102.5 102.458 102.458 102.5 102.279 102.5H5.72144C5.5422 102.5 5.5 102.458 5.5 102.279C5.5 86.8148 5.5 71.3598 5.5 55.9136C5.50443 55.909 5.50975 55.9053 5.51564 55.9028C5.52153 55.9003 5.52783 55.899 5.53424 55.899C5.54064 55.899 5.54701 55.9003 5.5529 55.9028C5.55879 55.9053 5.56411 55.909 5.56854 55.9136C5.63422 56.204 5.66083 56.5019 5.64762 56.7993C5.74567 58.556 5.94457 60.3056 6.24333 62.0394C6.6176 64.2543 7.14606 66.4404 7.82486 68.5816C8.36198 70.2749 8.99021 71.938 9.70684 73.5634C10.6308 75.655 11.7037 77.6775 12.9173 79.6154C14.1296 81.5638 15.4828 83.4209 16.966 85.1718C17.5986 85.9151 18.2576 86.6373 18.9218 87.3543C19.5861 88.0713 20.1554 88.609 20.7986 89.21C21.8529 90.2221 22.9811 91.1816 24.1356 92.083C30.0756 96.7452 37.0247 99.9516 44.4265 101.446C45.8762 101.736 47.3365 101.973 48.8074 102.115C49.9619 102.231 51.1216 102.305 52.2814 102.363C53.2514 102.41 54.2214 102.416 55.1861 102.389C56.1509 102.363 57.1367 102.3 58.1067 102.221C59.5301 102.099 60.9481 101.91 62.3557 101.667C64.4015 101.311 66.4215 100.82 68.4024 100.196C70.1597 99.6477 71.8846 99 73.5687 98.2563C77.5248 96.4995 81.227 94.2192 84.5761 91.4768C85.5514 90.6808 86.4897 89.8373 87.407 88.978C88.0923 88.3348 88.7408 87.6601 89.3786 86.98C90.6686 85.6088 91.8711 84.158 92.9792 82.6361C94.0629 81.1565 95.0643 79.6183 95.9789 78.0286C97.2512 75.8049 98.3441 73.4832 99.2473 71.0857C99.9268 69.2961 100.497 67.467 100.955 65.6084C101.445 63.6337 101.81 61.6299 102.047 59.6091C102.152 58.6602 102.226 57.7113 102.289 56.7624C102.381 55.4374 102.407 54.116 102.368 52.798C102.368 51.8228 102.279 50.8475 102.2 49.8775C102.047 48.1084 101.801 46.3487 101.461 44.6058C101.177 43.1191 100.813 41.6536 100.407 40.2039C99.824 38.2294 99.1198 36.2928 98.2984 34.4049C97.7396 33.1397 97.1281 31.9061 96.4639 30.7147C95.7997 29.5233 95.0932 28.3161 94.3552 27.1669C93.3797 25.7036 92.3238 24.2956 91.1921 22.9495C90.4646 22.0902 89.7055 21.252 88.9253 20.4296C86.574 17.9938 83.969 15.8165 81.1547 13.9348C79.1663 12.5757 77.076 11.372 74.9025 10.3342C72.2572 9.06751 69.503 8.04239 66.6733 7.2713C64.5431 6.69677 62.3768 6.26529 60.189 5.97973C59.3192 5.86902 58.4441 5.76886 57.5532 5.71614L56.1087 5.62125C56.0402 5.61071 55.9295 5.63707 55.9136 5.5Z" fill="#FEFEFE"/>
<path d="M20.7564 29.1015C21.5419 28.0472 22.3854 27.0508 23.2552 26.0755C23.3976 25.9121 23.4661 25.9385 23.5978 26.0755C24.364 26.8558 25.1354 27.6272 25.9121 28.3898C26.0545 28.5269 26.0545 28.6007 25.9121 28.7483C22.2393 32.8103 19.5007 37.6272 17.8886 42.8608C17.203 45.0642 16.7248 47.3268 16.46 49.6191C16.1763 51.9949 16.1269 54.3927 16.3123 56.7782C16.8542 64.17 19.5727 71.236 24.125 77.0849C24.6944 77.8229 25.2954 78.5452 25.9333 79.2358C26.0387 79.3517 26.0545 79.4203 25.9333 79.5415C25.1319 80.3639 24.3517 81.1863 23.5399 82.014C23.4186 82.1458 23.3659 82.0983 23.271 82.014C21.6606 80.245 20.2038 78.3421 18.9165 76.3258C16.2429 72.1299 14.3465 67.487 13.318 62.6192C12.8315 60.3448 12.5439 58.0323 12.4587 55.708C12.4587 55.1808 12.427 54.6115 12.4165 54.0579C12.4134 45.0543 15.3408 36.2943 20.7564 29.1015Z" fill="#282138"/>
<path d="M73.3265 59.0136C73.1566 58.0057 72.7617 57.0492 72.1712 56.215C71.5807 55.3808 70.8097 54.6904 69.9156 54.1952C68.925 53.6413 67.8597 53.2329 66.7526 52.9827L67.1796 52.7507C67.9976 52.3164 68.7168 51.7175 69.292 50.9917C69.8672 50.2659 70.2859 49.4289 70.5219 48.5334C70.87 47.1917 70.9222 45.7905 70.6748 44.4267C70.5413 43.4758 70.2164 42.562 69.7199 41.7402C69.2234 40.9184 68.5655 40.2057 67.7859 39.6452C66.5588 38.7886 65.1819 38.1699 63.7266 37.8212C62.4226 37.4846 61.0932 37.2554 59.7518 37.1358C59.3827 37.0989 59.3827 37.099 59.3827 36.7299C59.3827 34.3822 59.3827 32.0381 59.3827 29.6974C59.3827 29.4813 59.3247 29.4338 59.1138 29.4391C57.7256 29.4391 56.3357 29.4391 54.9439 29.4391C54.7278 29.4391 54.6804 29.5024 54.6804 29.7132C54.6804 32.0486 54.6804 34.3787 54.6804 36.7141C54.6804 36.9039 54.6381 36.9619 54.4431 36.9566C53.3624 36.9566 52.2765 36.9566 51.1957 36.9566C50.9743 36.9566 50.9322 36.8934 50.9322 36.6878C50.9322 34.3576 50.9322 32.0328 50.9322 29.708C50.9322 29.5024 50.89 29.4338 50.6686 29.4338C49.2979 29.4338 47.922 29.4338 46.5513 29.4338C46.3299 29.4338 46.2719 29.4918 46.2719 29.7132C46.2719 32.1066 46.2719 34.4947 46.2719 36.8881C46.2719 37.1095 46.2086 37.1517 46.003 37.1464H37.1096C37.0535 37.1517 36.997 37.1517 36.9409 37.1464C36.7986 37.1464 36.7617 37.1938 36.7617 37.3256C36.7617 38.8861 36.7617 40.4447 36.7617 42.0017C36.7617 42.1229 36.7617 42.1651 36.9251 42.1651C37.9109 42.1651 38.8967 42.1651 39.8825 42.1651C40.2046 42.1537 40.5271 42.166 40.8473 42.202C41.3719 42.2927 41.8514 42.5554 42.2102 42.9486C42.5691 43.3418 42.787 43.8433 42.8295 44.374V65.2131C42.833 65.432 42.7926 65.6493 42.7108 65.8523C42.629 66.0554 42.5074 66.2399 42.3532 66.3952C42.1989 66.5505 42.0151 66.6733 41.8126 66.7563C41.6101 66.8394 41.393 66.8811 41.1742 66.879H37.8529C37.7106 66.879 37.6474 66.879 37.621 67.0635C37.3574 68.7768 37.0938 70.4902 36.8039 72.1982C36.7617 72.4512 36.8038 72.4723 37.0463 72.4723C39.9933 72.4723 42.9402 72.4723 45.8923 72.4723C46.1296 72.4723 46.1823 72.5409 46.177 72.7728C46.177 75.2031 46.177 77.6334 46.177 80.0636C46.177 80.264 46.2297 80.3219 46.4301 80.3219C47.8218 80.3219 49.2083 80.3219 50.6 80.3219C50.8162 80.3219 50.8847 80.2745 50.8794 80.0425C50.8794 77.6544 50.8794 75.2611 50.8794 72.873C50.8794 72.6674 50.911 72.5988 51.1377 72.5988C52.192 72.5988 53.2834 72.5988 54.3588 72.5988C54.5749 72.5988 54.6276 72.6516 54.6276 72.8677C54.6276 75.2505 54.6276 77.6123 54.6276 80.0162C54.6276 80.2376 54.6909 80.2798 54.8965 80.2798C56.2671 80.2798 57.6431 80.2798 59.0137 80.2798C59.3722 80.2798 59.3247 80.3219 59.33 79.974C59.33 77.5806 59.33 75.189 59.33 72.7992C59.33 72.641 59.33 72.5303 59.5462 72.5198C60.7967 72.4608 62.0428 72.3305 63.2785 72.1297C64.8836 71.9001 66.452 71.4624 67.944 70.8275C69.0031 70.3981 69.9654 69.7607 70.774 68.953C71.5826 68.1454 72.2211 67.1838 72.6517 66.1251C73.5598 63.8698 73.7942 61.3995 73.3265 59.0136ZM51.3644 42.4867C52.6454 42.4867 53.9318 42.4076 55.2128 42.4867C56.7412 42.5151 58.2492 42.8429 59.6516 43.4514C60.2389 43.6906 60.7575 44.0722 61.1606 44.5618C61.5637 45.0514 61.8386 45.6336 61.9606 46.256C62.3138 48.1696 61.7023 49.7406 59.9152 50.7211C58.8931 51.241 57.7861 51.5731 56.6467 51.7017C54.8647 51.8939 53.0712 51.9574 51.28 51.8915C51.0797 51.8915 51.085 51.7913 51.085 51.6542C51.085 50.1571 51.085 48.6651 51.085 47.168C51.085 45.6708 51.085 44.2316 51.085 42.7608C51.0639 42.5288 51.1377 42.4867 51.3644 42.4867ZM63.1257 64.57C62.4806 65.2001 61.7023 65.6774 60.8483 65.967C59.613 66.3954 58.329 66.6681 57.0263 66.7788C55.118 66.9238 53.2037 66.9713 51.2906 66.9212C51.085 66.9212 51.0797 66.8316 51.0797 66.6787C51.0797 65.0339 51.0797 63.3926 51.0797 61.7549C51.0797 60.1171 51.0797 58.4776 51.0797 56.8363C51.0797 56.636 51.1324 56.5886 51.3328 56.5833C52.54 56.5517 53.7525 56.5253 54.965 56.5517C56.7448 56.5346 58.5186 56.7617 60.2367 57.2264C60.9846 57.4341 61.6958 57.7559 62.3454 58.1806C62.8582 58.5161 63.2918 58.9593 63.6159 59.4793C63.94 59.9994 64.1469 60.5838 64.2222 61.192C64.2975 61.8001 64.2393 62.4174 64.0517 63.0007C63.8642 63.5841 63.5517 64.1196 63.1362 64.57H63.1257Z" fill="#282138"/>
<path d="M81.9405 84.3229C82.1039 84.4758 82.0987 84.5549 81.9405 84.7025C77.068 89.1365 71.2093 92.346 64.8495 94.0651C62.6698 94.6584 60.4445 95.0692 58.1966 95.2934C56.7996 95.4357 55.392 95.4937 53.7947 95.5201C45.5713 95.4818 37.5457 92.995 30.7414 88.3769C29.0965 87.2578 27.5322 86.0247 26.0601 84.6867C25.9125 84.5549 25.8966 84.4863 26.0601 84.3387C26.8473 83.5691 27.624 82.7924 28.3902 82.0086C28.5062 81.8926 28.5694 81.861 28.7118 82.0086C34.827 87.5423 42.5899 90.9154 50.8079 91.6097C59.0259 92.3039 67.2446 90.2811 74.2016 85.8517C75.9898 84.7213 77.6761 83.4371 79.2414 82.0139C79.3732 81.8926 79.4364 81.8874 79.5682 82.0139C80.3414 82.7871 81.1322 83.5568 81.9405 84.3229Z" fill="#282138"/>
<path d="M26.0176 23.5874C25.8911 23.4609 25.8647 23.3977 26.0176 23.2606C30.516 19.1636 35.859 16.1043 41.6694 14.2986C43.9877 13.5753 46.3659 13.0602 48.7757 12.7593C50.6857 12.5278 52.6084 12.4168 54.5324 12.4272C61.7991 12.499 68.9163 14.5002 75.1555 18.2261C77.588 19.6681 79.8667 21.3551 81.956 23.2606C82.072 23.366 82.0826 23.4188 81.956 23.5347C81.16 24.3202 80.3745 25.1162 79.589 25.9017C79.452 26.0388 79.3834 26.023 79.2463 25.9017C76.4355 23.3562 73.2536 21.2533 69.8099 19.6653C66.7904 18.2694 63.5998 17.2785 60.3208 16.7184C57.4684 16.2287 54.5686 16.0748 51.6804 16.2597C44.9839 16.6696 38.5196 18.8668 32.9604 22.6227C31.4775 23.6128 30.0681 24.7086 28.7431 25.9017C28.6113 26.023 28.5374 26.0441 28.4004 25.9017C27.6412 25.1373 26.8189 24.3571 26.0176 23.5874Z" fill="#282138"/>
<path d="M82.0089 28.3847C82.8524 27.5517 83.6906 26.7083 84.5288 25.8701L84.5868 25.8279C89.9373 31.6554 93.5144 38.8883 94.8983 46.6776C95.4308 49.6333 95.6324 52.6392 95.4993 55.6396C95.1438 64.3188 92.0593 72.6646 86.685 79.4889C86.0523 80.306 85.3775 81.0704 84.6922 81.8612C84.5604 82.0088 84.4919 81.9983 84.3601 81.8612C83.5904 81.0757 82.8102 80.2797 82.03 79.5311C81.8982 79.3993 81.893 79.3308 82.03 79.1884C87.6208 73.0062 90.9994 65.1419 91.6351 56.831C91.8127 54.6316 91.7897 52.4207 91.5666 50.2255C90.8611 43.0151 88.0856 36.1625 83.5746 30.4934C83.0756 29.8608 82.5484 29.2457 81.9931 28.6483C81.9404 28.5586 81.8877 28.5007 82.0089 28.3847Z" fill="#282138"/>
<path d="M101.267 43.3459C98.9546 33.0823 93.3675 23.8488 85.3484 17.0383C77.3293 10.2278 67.313 6.20959 56.8103 5.58972C56.5092 5.60113 56.2079 5.57277 55.9142 5.50537H55.8668C55.7038 5.52387 55.5394 5.52387 55.3765 5.50537H55.0075C54.8915 5.50537 54.7702 5.50537 54.6542 5.50537H53.2994C53.1834 5.55809 53.0622 5.50537 52.9409 5.50537H52.5719C52.4108 5.52402 52.248 5.52402 52.0869 5.50537H51.9868C51.9745 5.51142 51.9609 5.51456 51.9472 5.51456C51.9335 5.51456 51.92 5.51142 51.9077 5.50537H51.8918C50.6985 5.51756 49.5069 5.59853 48.3229 5.74787C46.4061 5.97066 44.5047 6.31045 42.6294 6.76532C40.6889 7.23359 38.7787 7.81984 36.9095 8.52081C34.6187 9.38294 32.3964 10.4174 30.2619 11.6153C28.1108 12.8168 26.0557 14.1828 24.1151 15.7009C22.8499 16.692 21.6356 17.7463 20.4723 18.864C19.9135 19.4017 19.367 19.9499 18.8328 20.5087C18.2529 21.1097 17.6993 21.7265 17.1563 22.3538C15.7275 24.0212 14.4119 25.7824 13.2184 27.6256C12.3274 29.0068 11.5156 30.4249 10.767 31.8852C9.15039 35.0532 7.88638 38.3891 6.99769 41.8329C6.50678 43.7252 6.13353 45.646 5.88009 47.5844C5.66671 49.0351 5.55573 50.499 5.54797 51.9652V52.6927C5.56613 52.868 5.56613 53.0446 5.54797 53.2199V54.6749C5.56558 54.8502 5.56558 55.0268 5.54797 55.2021V55.5816C5.5374 55.6868 5.5374 55.7928 5.54797 55.8979C5.63917 58.1245 5.88402 60.3422 6.28075 62.535C7.42383 68.8854 9.8234 74.9436 13.3387 80.3544C16.854 85.7651 21.4143 90.4195 26.7522 94.0446C32.09 97.6697 38.0979 100.192 44.4236 101.465C50.7493 102.738 57.2654 102.734 63.5898 101.455C69.9142 100.176 75.9195 97.6473 81.2537 94.0168C86.5878 90.3863 91.1434 85.7272 94.6532 80.3129C98.1629 74.8986 100.556 68.8379 101.693 62.4864C102.83 56.1349 102.687 49.6203 101.272 43.3248L101.267 43.3459ZM54.0005 9.28521C62.8331 9.28312 71.4678 11.9003 78.8129 16.8058C86.158 21.7112 91.8834 28.6846 95.2652 36.8441C98.6469 45.0036 99.5331 53.9827 97.8116 62.6458C96.0901 71.309 91.8383 79.2671 85.5938 85.5137C79.3494 91.7604 71.3928 96.015 62.7303 97.7395C54.0678 99.4641 45.0884 98.5811 36.9277 95.2022C28.767 91.8234 21.7916 86.1004 16.8835 78.7571C11.9754 71.4138 9.35525 62.7799 9.35421 53.9474C9.35421 42.105 14.0575 30.7474 22.4298 22.372C30.8022 13.9967 42.1581 9.2894 54.0005 9.28521Z" fill="#282138"/>
<path d="M51.9868 5.49966C51.7188 5.5707 51.441 5.59742 51.1644 5.57873C40.2044 6.22097 29.7865 10.5628 21.6143 17.8942C13.4421 25.2256 7.99911 35.1129 6.17538 45.9392C5.84341 47.9384 5.63212 49.9559 5.54273 51.9806C5.54273 51.9806 5.54276 51.9806 5.50586 51.9806C5.50586 36.5625 5.50586 21.1409 5.50586 5.7158C5.50586 5.53656 5.54806 5.49438 5.7273 5.49438L51.9868 5.49966Z" fill="#FEFEFE"/>
<path d="M5.54752 52.7085C5.57425 52.8851 5.55984 53.0655 5.50537 53.2357V52.7085H5.54752Z" fill="#575264"/>
<path d="M5.5 54.7012C5.55428 54.8713 5.56869 55.0517 5.54215 55.2283C5.54215 55.2283 5.51054 55.2283 5.5 55.2283V54.7012Z" fill="#5D5869"/>
<path d="M52.5662 5.54227C52.4027 5.54227 52.2393 5.61608 52.0864 5.50537H52.5714C52.5714 5.50537 52.5714 5.54227 52.5662 5.54227Z" fill="#A5A3AC"/>
<path d="M55.866 5.5C55.7131 5.61071 55.5444 5.5 55.3862 5.5369C55.3862 5.5369 55.3599 5.5369 55.3862 5.5369C55.4126 5.5369 55.3862 5.5369 55.3862 5.5369L55.866 5.5Z" fill="#A6A3AC"/>
<path d="M5.54743 52.7084H5.5V52.2761C5.5 52.2761 5.49998 52.2498 5.54215 52.2761L5.54743 52.7084Z" fill="#8D8996"/>
<path d="M52.5659 5.54217V5.5H52.9507C52.9507 5.5 52.9507 5.5 52.9507 5.53163L52.5659 5.54217Z" fill="#6C6777"/>
<path d="M55.3813 5.5C55.3813 5.5 55.3813 5.5 55.3813 5.5369H54.9912L55.3813 5.5Z" fill="#6C6777"/>
<path d="M52.9458 5.54744V5.5H53.2885C53.1936 5.59489 53.0671 5.54217 52.9458 5.54744Z" fill="#4C4659"/>
<path d="M54.9911 5.5C54.9937 5.51394 54.9937 5.52824 54.9911 5.54217C54.8751 5.54217 54.7539 5.58962 54.6484 5.5H54.9911Z" fill="#4B4659"/>
<path d="M5.5 55.2336H5.54215V55.5816C5.54215 55.5816 5.51054 55.5816 5.5 55.5816V55.2336Z" fill="#878390"/>
<path d="M5.5 55.5815H5.54215V55.9242H5.5V55.5815Z" fill="#B3B0B8"/>
<path d="M5.54743 52.2762H5.5V51.981C5.50584 51.9786 5.51213 51.9773 5.51847 51.9773C5.52481 51.9773 5.53103 51.9786 5.53687 51.981L5.54743 52.2762Z" fill="#C2C0C7"/>
<path d="M25.944 79.5416C25.1427 80.364 24.3624 81.1864 23.5506 82.0141C23.4294 82.1459 23.3766 82.0984 23.2817 82.0141C21.6713 80.2451 20.2146 78.3422 18.9273 76.3259C16.2536 72.13 14.3572 67.4871 13.3287 62.6193C12.8422 60.3449 12.5547 58.0324 12.4694 55.7081C12.4694 55.1809 12.4378 54.6116 12.4272 54.058C12.428 45.0665 15.3513 36.3188 20.7566 29.1333C21.542 28.0789 22.3856 27.0826 23.2554 26.1073C23.3978 25.9439 23.4662 25.9702 23.598 26.1073C24.3642 26.8875 25.1356 27.6589 25.9123 28.4216C26.0547 28.5586 26.0547 28.6325 25.9123 28.7801C22.2395 32.842 19.5009 37.659 17.8888 42.8925C17.2032 45.0959 16.7249 47.3585 16.4601 49.6509C16.1765 52.0266 16.127 54.4245 16.3125 56.8099C16.8544 64.2018 19.5729 71.2677 24.1252 77.1166C24.6946 77.8547 25.2956 78.5769 25.9334 79.2675C26.06 79.3518 26.06 79.4204 25.944 79.5416Z" fill="#FCFCFC"/>
<path d="M73.3265 59.0136C73.1566 58.0057 72.7617 57.0492 72.1712 56.215C71.5807 55.3808 70.8097 54.6904 69.9156 54.1952C68.925 53.6413 67.8597 53.2329 66.7526 52.9827L67.1796 52.7507C67.9976 52.3164 68.7168 51.7175 69.292 50.9917C69.8672 50.2659 70.2859 49.4289 70.5219 48.5334C70.87 47.1917 70.9222 45.7905 70.6748 44.4267C70.5413 43.4758 70.2164 42.562 69.7199 41.7402C69.2234 40.9184 68.5655 40.2057 67.7859 39.6452C66.5588 38.7886 65.1819 38.1699 63.7266 37.8212C62.4226 37.4846 61.0932 37.2554 59.7518 37.1358C59.3827 37.0989 59.3827 37.099 59.3827 36.7299C59.3827 34.3822 59.3827 32.0381 59.3827 29.6974C59.3827 29.4813 59.3247 29.4338 59.1138 29.4391C57.7256 29.4391 56.3357 29.4391 54.9439 29.4391C54.7278 29.4391 54.6804 29.5024 54.6804 29.7132C54.6804 32.0486 54.6804 34.3787 54.6804 36.7141C54.6804 36.9039 54.6381 36.9619 54.4431 36.9566C53.3624 36.9566 52.2765 36.9566 51.1957 36.9566C50.9743 36.9566 50.9322 36.8934 50.9322 36.6878C50.9322 34.3576 50.9322 32.0328 50.9322 29.708C50.9322 29.5024 50.89 29.4338 50.6686 29.4338C49.2979 29.4338 47.922 29.4338 46.5513 29.4338C46.3299 29.4338 46.2719 29.4918 46.2719 29.7132C46.2719 32.1066 46.2719 34.4947 46.2719 36.8881C46.2719 37.1095 46.2086 37.1517 46.003 37.1464H37.1096C37.0535 37.1517 36.997 37.1517 36.9409 37.1464C36.7986 37.1464 36.7617 37.1938 36.7617 37.3256C36.7617 38.8861 36.7617 40.4447 36.7617 42.0017C36.7617 42.1229 36.7617 42.1651 36.9251 42.1651C37.9109 42.1651 38.8967 42.1651 39.8825 42.1651C40.2046 42.1537 40.5271 42.166 40.8473 42.202C41.3719 42.2927 41.8514 42.5554 42.2102 42.9486C42.5691 43.3418 42.787 43.8433 42.8295 44.374V65.2131C42.833 65.432 42.7926 65.6493 42.7108 65.8523C42.629 66.0554 42.5074 66.2399 42.3532 66.3952C42.1989 66.5505 42.0151 66.6733 41.8126 66.7563C41.6101 66.8394 41.393 66.8811 41.1742 66.879H37.8529C37.7106 66.879 37.6474 66.879 37.621 67.0635C37.3574 68.7768 37.0938 70.4902 36.8039 72.1982C36.7617 72.4512 36.8038 72.4723 37.0463 72.4723C39.9933 72.4723 42.9402 72.4723 45.8923 72.4723C46.1296 72.4723 46.1823 72.5409 46.177 72.7728C46.177 75.2031 46.177 77.6334 46.177 80.0636C46.177 80.264 46.2297 80.3219 46.4301 80.3219C47.8218 80.3219 49.2083 80.3219 50.6 80.3219C50.8162 80.3219 50.8847 80.2745 50.8794 80.0425C50.8794 77.6544 50.8794 75.2611 50.8794 72.873C50.8794 72.6674 50.911 72.5988 51.1377 72.5988C52.192 72.5988 53.2834 72.5988 54.3588 72.5988C54.5749 72.5988 54.6276 72.6516 54.6276 72.8677C54.6276 75.2505 54.6276 77.6123 54.6276 80.0162C54.6276 80.2376 54.6909 80.2798 54.8965 80.2798C56.2671 80.2798 57.6431 80.2798 59.0137 80.2798C59.3722 80.2798 59.3247 80.3219 59.33 79.974C59.33 77.5806 59.33 75.189 59.33 72.7992C59.33 72.641 59.33 72.5303 59.5462 72.5198C60.7967 72.4608 62.0428 72.3305 63.2785 72.1297C64.8836 71.9001 66.452 71.4624 67.944 70.8275C69.0031 70.3981 69.9654 69.7607 70.774 68.953C71.5826 68.1454 72.2211 67.1838 72.6517 66.1251C73.5598 63.8698 73.7942 61.3995 73.3265 59.0136ZM51.3644 42.4867C52.6454 42.4867 53.9318 42.4076 55.2128 42.4867C56.7412 42.5151 58.2492 42.8429 59.6516 43.4514C60.2389 43.6906 60.7575 44.0722 61.1606 44.5618C61.5637 45.0514 61.8386 45.6336 61.9606 46.256C62.3138 48.1696 61.7023 49.7406 59.9152 50.7211C58.8931 51.241 57.7861 51.5731 56.6467 51.7017C54.8647 51.8939 53.0712 51.9574 51.28 51.8915C51.0797 51.8915 51.085 51.7913 51.085 51.6542C51.085 50.1571 51.085 48.6651 51.085 47.168C51.085 45.6708 51.085 44.2316 51.085 42.7608C51.0639 42.5288 51.1377 42.4867 51.3644 42.4867ZM63.1257 64.57C62.4806 65.2001 61.7023 65.6774 60.8483 65.967C59.613 66.3954 58.329 66.6681 57.0263 66.7788C55.118 66.9238 53.2037 66.9713 51.2906 66.9212C51.085 66.9212 51.0797 66.8316 51.0797 66.6787C51.0797 65.0339 51.0797 63.3926 51.0797 61.7549C51.0797 60.1171 51.0797 58.4776 51.0797 56.8363C51.0797 56.636 51.1324 56.5886 51.3328 56.5833C52.54 56.5517 53.7525 56.5253 54.965 56.5517C56.7448 56.5346 58.5186 56.7617 60.2367 57.2264C60.9846 57.4341 61.6958 57.7559 62.3454 58.1806C62.8582 58.5161 63.2918 58.9593 63.6159 59.4793C63.94 59.9994 64.1469 60.5838 64.2222 61.192C64.2975 61.8001 64.2393 62.4174 64.0517 63.0007C63.8642 63.5841 63.5517 64.1196 63.1362 64.57H63.1257Z" fill="#FCFCFC"/>
<path d="M81.9405 84.3229C82.1039 84.4758 82.0987 84.5549 81.9405 84.7025C77.068 89.1365 71.2093 92.346 64.8495 94.0651C62.6698 94.6584 60.4445 95.0692 58.1966 95.2934C56.7996 95.4357 55.392 95.4937 53.7947 95.5201C45.5713 95.4818 37.5457 92.995 30.7414 88.3769C29.0965 87.2578 27.5322 86.0247 26.0601 84.6867C25.9125 84.5549 25.8966 84.4863 26.0601 84.3387C26.8473 83.5691 27.624 82.7924 28.3902 82.0086C28.5062 81.8926 28.5694 81.861 28.7118 82.0086C34.827 87.5423 42.5899 90.9154 50.8079 91.6097C59.0259 92.3039 67.2446 90.2811 74.2016 85.8517C75.9898 84.7213 77.6761 83.4371 79.2414 82.0139C79.3732 81.8926 79.4364 81.8874 79.5682 82.0139C80.3414 82.7871 81.1322 83.5568 81.9405 84.3229Z" fill="#FCFCFC"/>
<path d="M26.0176 23.5874C25.8911 23.4609 25.8647 23.3977 26.0176 23.2606C30.516 19.1636 35.859 16.1043 41.6694 14.2986C43.9877 13.5753 46.3659 13.0602 48.7757 12.7593C50.6857 12.5278 52.6084 12.4168 54.5324 12.4272C61.7991 12.499 68.9163 14.5002 75.1555 18.2261C77.588 19.6681 79.8667 21.3551 81.956 23.2606C82.072 23.366 82.0826 23.4188 81.956 23.5347C81.16 24.3202 80.3745 25.1162 79.589 25.9017C79.452 26.0388 79.3834 26.023 79.2463 25.9017C76.4355 23.3562 73.2536 21.2533 69.8099 19.6653C66.7904 18.2694 63.5998 17.2785 60.3208 16.7184C57.4684 16.2287 54.5686 16.0748 51.6804 16.2597C44.9839 16.6696 38.5196 18.8668 32.9604 22.6227C31.4775 23.6128 30.0681 24.7086 28.7431 25.9017C28.6113 26.023 28.5374 26.0441 28.4004 25.9017C27.6412 25.1373 26.8189 24.3571 26.0176 23.5874Z" fill="#FCFCFC"/>
<path d="M95.4991 55.6289C95.1458 64.3118 92.0612 72.6616 86.6848 79.4888C86.0522 80.3059 85.3774 81.0703 84.6921 81.8611C84.5603 82.0087 84.4917 81.9982 84.3599 81.8611C83.5903 81.0756 82.8101 80.2796 82.0299 79.531C81.8981 79.3992 81.8928 79.3307 82.0299 79.1883C87.6207 73.0062 90.9993 65.1418 91.635 56.8309C91.8125 54.6315 91.7896 52.4206 91.5664 50.2254C90.8609 43.015 88.0854 36.1624 83.5745 30.4933C83.0754 29.8607 82.5482 29.2456 81.9929 28.6482C81.9086 28.5533 81.8664 28.4953 81.9929 28.3793C82.8364 27.5464 83.6746 26.7029 84.5128 25.8647L84.5708 25.8225C89.9213 31.65 93.4985 38.8829 94.8824 46.6722C95.4198 49.6257 95.6266 52.6297 95.4991 55.6289Z" fill="#FCFCFC"/>
<path d="M73.3265 59.0136C73.1566 58.0057 72.7617 57.0492 72.1712 56.215C71.5807 55.3808 70.8097 54.6904 69.9156 54.1952C68.925 53.6413 67.8597 53.2329 66.7526 52.9827L67.1796 52.7507C67.9976 52.3164 68.7168 51.7175 69.292 50.9917C69.8672 50.2659 70.2859 49.4289 70.5219 48.5334C70.87 47.1917 70.9222 45.7905 70.6748 44.4267C70.5413 43.4758 70.2164 42.562 69.7199 41.7402C69.2234 40.9184 68.5655 40.2057 67.7859 39.6452C66.5588 38.7886 65.1819 38.1699 63.7266 37.8212C62.4226 37.4846 61.0932 37.2554 59.7518 37.1358C59.3827 37.0989 59.3827 37.099 59.3827 36.7299C59.3827 34.3822 59.3827 32.0381 59.3827 29.6974C59.3827 29.4813 59.3247 29.4338 59.1138 29.4391C57.7256 29.4391 56.3357 29.4391 54.9439 29.4391C54.7278 29.4391 54.6804 29.5024 54.6804 29.7132C54.6804 32.0486 54.6804 34.3787 54.6804 36.7141C54.6804 36.9039 54.6381 36.9619 54.4431 36.9566C53.3624 36.9566 52.2765 36.9566 51.1957 36.9566C50.9743 36.9566 50.9322 36.8934 50.9322 36.6878C50.9322 34.3576 50.9322 32.0328 50.9322 29.708C50.9322 29.5024 50.89 29.4338 50.6686 29.4338C49.2979 29.4338 47.922 29.4338 46.5513 29.4338C46.3299 29.4338 46.2719 29.4918 46.2719 29.7132C46.2719 32.1066 46.2719 34.4947 46.2719 36.8881C46.2719 37.1095 46.2086 37.1517 46.003 37.1464H37.1096C37.0535 37.1517 36.997 37.1517 36.9409 37.1464C36.7986 37.1464 36.7617 37.1938 36.7617 37.3256C36.7617 38.8861 36.7617 40.4447 36.7617 42.0017C36.7617 42.1229 36.7617 42.1651 36.9251 42.1651C37.9109 42.1651 38.8967 42.1651 39.8825 42.1651C40.2046 42.1537 40.5271 42.166 40.8473 42.202C41.3719 42.2927 41.8514 42.5554 42.2102 42.9486C42.5691 43.3418 42.787 43.8433 42.8295 44.374V65.2131C42.833 65.432 42.7926 65.6493 42.7108 65.8523C42.629 66.0554 42.5074 66.2399 42.3532 66.3952C42.1989 66.5505 42.0151 66.6733 41.8126 66.7563C41.6101 66.8394 41.393 66.8811 41.1742 66.879H37.8529C37.7106 66.879 37.6474 66.879 37.621 67.0635C37.3574 68.7768 37.0938 70.4902 36.8039 72.1982C36.7617 72.4512 36.8038 72.4723 37.0463 72.4723C39.9933 72.4723 42.9402 72.4723 45.8923 72.4723C46.1296 72.4723 46.1823 72.5409 46.177 72.7728C46.177 75.2031 46.177 77.6334 46.177 80.0636C46.177 80.264 46.2297 80.3219 46.4301 80.3219C47.8218 80.3219 49.2083 80.3219 50.6 80.3219C50.8162 80.3219 50.8847 80.2745 50.8794 80.0425C50.8794 77.6544 50.8794 75.2611 50.8794 72.873C50.8794 72.6674 50.911 72.5988 51.1377 72.5988C52.192 72.5988 53.2834 72.5988 54.3588 72.5988C54.5749 72.5988 54.6276 72.6516 54.6276 72.8677C54.6276 75.2505 54.6276 77.6123 54.6276 80.0162C54.6276 80.2376 54.6909 80.2798 54.8965 80.2798C56.2671 80.2798 57.6431 80.2798 59.0137 80.2798C59.3722 80.2798 59.3247 80.3219 59.33 79.974C59.33 77.5806 59.33 75.189 59.33 72.7992C59.33 72.641 59.33 72.5303 59.5462 72.5198C60.7967 72.4608 62.0428 72.3305 63.2785 72.1297C64.8836 71.9001 66.452 71.4624 67.944 70.8275C69.0031 70.3981 69.9654 69.7607 70.774 68.953C71.5826 68.1454 72.2211 67.1838 72.6517 66.1251C73.5598 63.8698 73.7942 61.3995 73.3265 59.0136ZM51.3644 42.4867C52.6454 42.4867 53.9318 42.4076 55.2128 42.4867C56.7412 42.5151 58.2492 42.8429 59.6516 43.4514C60.2389 43.6906 60.7575 44.0722 61.1606 44.5618C61.5637 45.0514 61.8386 45.6336 61.9606 46.256C62.3138 48.1696 61.7023 49.7406 59.9152 50.7211C58.8931 51.241 57.7861 51.5731 56.6467 51.7017C54.8647 51.8939 53.0712 51.9574 51.28 51.8915C51.0797 51.8915 51.085 51.7913 51.085 51.6542C51.085 50.1571 51.085 48.6651 51.085 47.168C51.085 45.6708 51.085 44.2316 51.085 42.7608C51.0639 42.5288 51.1377 42.4867 51.3644 42.4867ZM63.1257 64.57C62.4806 65.2001 61.7023 65.6774 60.8483 65.967C59.613 66.3954 58.329 66.6681 57.0263 66.7788C55.118 66.9238 53.2037 66.9713 51.2906 66.9212C51.085 66.9212 51.0797 66.8316 51.0797 66.6787C51.0797 65.0339 51.0797 63.3926 51.0797 61.7549C51.0797 60.1171 51.0797 58.4776 51.0797 56.8363C51.0797 56.636 51.1324 56.5886 51.3328 56.5833C52.54 56.5517 53.7525 56.5253 54.965 56.5517C56.7448 56.5346 58.5186 56.7617 60.2367 57.2264C60.9846 57.4341 61.6958 57.7559 62.3454 58.1806C62.8582 58.5161 63.2918 58.9593 63.6159 59.4793C63.94 59.9994 64.1469 60.5838 64.2222 61.192C64.2975 61.8001 64.2393 62.4174 64.0517 63.0007C63.8642 63.5841 63.5517 64.1196 63.1362 64.57H63.1257Z" fill="#EF9142"/>
<path d="M25.944 79.5416C25.1427 80.364 24.3624 81.1864 23.5506 82.0141C23.4294 82.1459 23.3766 82.0984 23.2817 82.0141C21.6713 80.2451 20.2146 78.3422 18.9273 76.3259C16.2536 72.13 14.3572 67.4871 13.3287 62.6193C12.8422 60.3449 12.5547 58.0324 12.4694 55.7081C12.4694 55.1809 12.4378 54.6116 12.4272 54.058C12.428 45.0665 15.3513 36.3188 20.7566 29.1333C21.542 28.0789 22.3856 27.0826 23.2554 26.1073C23.3978 25.9439 23.4662 25.9702 23.598 26.1073C24.3642 26.8875 25.1356 27.6589 25.9123 28.4216C26.0547 28.5586 26.0547 28.6325 25.9123 28.7801C22.2395 32.842 19.5009 37.659 17.8888 42.8925C17.2032 45.0959 16.7249 47.3585 16.4601 49.6509C16.1765 52.0266 16.127 54.4245 16.3125 56.8099C16.8544 64.2018 19.5729 71.2677 24.1252 77.1166C24.6946 77.8547 25.2956 78.5769 25.9334 79.2675C26.06 79.3518 26.06 79.4204 25.944 79.5416Z" fill="#5A5564"/>
<path d="M81.9402 23.5558C81.1442 24.3413 80.3587 25.1373 79.5732 25.9228C79.4361 26.0599 79.3676 26.0441 79.2305 25.9228C76.4197 23.3773 73.2378 21.2744 69.7941 19.6864C66.7746 18.2905 63.584 17.2996 60.305 16.7395C57.4526 16.2498 54.5527 16.0959 51.6646 16.2808C44.9681 16.6907 38.5039 18.8879 32.9447 22.6438C31.4618 23.6338 30.0523 24.7297 28.7273 25.9228C28.5955 26.0441 28.5217 26.0652 28.3846 25.9228C27.5939 25.1373 26.8031 24.3413 25.9912 23.5874C25.8647 23.4609 25.8384 23.3977 25.9912 23.2606C30.4896 19.1636 35.8327 16.1043 41.6431 14.2986C43.9614 13.5753 46.3395 13.0602 48.7494 12.7593C50.6594 12.5278 52.5821 12.4168 54.5061 12.4272C61.7727 12.499 68.8899 14.5002 75.1291 18.2261C77.5616 19.6681 79.8403 21.3551 81.9296 23.2606C82.0667 23.3871 82.0773 23.424 81.9402 23.5558Z" fill="#5A5564"/>
<path d="M81.9405 84.7025C77.068 89.1365 71.2093 92.346 64.8495 94.0651C62.6698 94.6584 60.4445 95.0692 58.1966 95.2934C56.7996 95.4357 55.392 95.4937 53.7947 95.5201C45.5713 95.4818 37.5457 92.995 30.7414 88.3769C29.0965 87.2578 27.5322 86.0247 26.0601 84.6867C25.9125 84.5549 25.8966 84.4863 26.0601 84.3387C26.8473 83.5691 27.624 82.7924 28.3902 82.0086C28.5062 81.8926 28.5694 81.861 28.7118 82.0086C34.827 87.5423 42.5899 90.9154 50.8079 91.6097C59.0259 92.3039 67.2446 90.2811 74.2016 85.8517C75.9898 84.7213 77.6761 83.4371 79.2414 82.0139C79.3732 81.8926 79.4364 81.8874 79.5682 82.0139C80.3484 82.7976 81.1392 83.5726 81.9405 84.3387C82.0934 84.4758 82.0881 84.576 81.9405 84.7025Z" fill="#5A5564"/>
<path d="M95.586 55.8064C95.2327 64.4893 92.1481 72.8391 86.7717 79.6663C86.1391 80.4834 85.4643 81.2478 84.779 82.0386C84.6472 82.1862 84.5786 82.1757 84.4469 82.0386C83.6772 81.2531 82.897 80.4571 82.1168 79.7085C81.985 79.5767 81.9797 79.5082 82.1168 79.3658C87.7076 73.1836 91.0862 65.3193 91.7219 57.0084C91.8994 54.809 91.8765 52.5981 91.6533 50.4029C90.9478 43.1925 88.1723 36.3399 83.6614 30.6708C83.1623 30.0382 82.6351 29.4231 82.0799 28.8257C81.9955 28.7308 81.9533 28.6728 82.0799 28.5568C82.9233 27.7239 83.7616 26.8804 84.5998 26.0422L84.6577 26C90.0083 31.8275 93.5854 39.0604 94.9693 46.8497C95.5067 49.8031 95.7136 52.8072 95.586 55.8064Z" fill="#5A5564"/>
</svg>
