<svg id="chart-line-white" xmlns="http://www.w3.org/2000/svg" width="21.634" height="21.634" viewBox="0 0 21.634 21.634">
  <path id="chart-line" d="M7.449,17.144a1.623,1.623,0,0,0,1.623-1.623.833.833,0,0,0,0-.162l3.018-3.018h.5l1.742,1.742v.087a1.623,1.623,0,1,0,3.245,0v-.087l3.937-3.97A1.623,1.623,0,1,0,19.889,8.49a.83.83,0,0,0,0,.162l-3.905,3.905h-.173l-1.871-1.9a1.623,1.623,0,1,0-3.245,0L7.449,13.9a1.623,1.623,0,1,0,0,3.245Zm14.6,4.327H3.663V3.082a1.082,1.082,0,1,0-2.163,0V22.553a1.082,1.082,0,0,0,1.082,1.082H22.053a1.082,1.082,0,0,0,0-2.163Z" transform="translate(-1.5 -2)" fill="#fff"/>
</svg>
