<svg id="clients" xmlns="http://www.w3.org/2000/svg" width="32.273" height="25.101" viewBox="0 0 32.273 25.101">
  <path id="users" d="M15.343,8.379a5.379,5.379,0,1,1-1.575-3.8A5.379,5.379,0,0,1,15.343,8.379Zm14.343,0a5.379,5.379,0,1,1-1.575-3.8A5.378,5.378,0,0,1,29.687,8.379ZM22.39,28.1a12.85,12.85,0,0,0,.126-1.793,12.5,12.5,0,0,0-2.689-7.763,8.965,8.965,0,0,1,13.447,7.763V28.1ZM9.965,17.343a8.965,8.965,0,0,1,8.965,8.965V28.1H1V26.308a8.965,8.965,0,0,1,8.965-8.965Z" transform="translate(-1 -3)" fill="#f4f4f8"/>
</svg>
