<svg width="24" height="24" viewBox="0 0 24 24" fill="none" xmlns="http://www.w3.org/2000/svg">
<path d="M15.8949 7.41209L12.5042 7.41207C12.0667 7.41207 11.6471 7.23828 11.3377 6.92892C11.0284 6.61957 10.8546 6.19999 10.8546 5.7625V2.37172C10.8546 2.33526 10.8401 2.30029 10.8143 2.27452C10.7885 2.24874 10.7536 2.23425 10.7171 2.23425L6.13497 2.23428C5.55165 2.23428 4.99222 2.466 4.57974 2.87847C4.16727 3.29095 3.93555 3.85038 3.93555 4.4337V15.4308C3.93555 16.0142 4.16727 16.5736 4.57974 16.9861C4.99222 17.3985 5.55165 17.6303 6.13497 17.6303H13.833C14.4163 17.6303 14.9757 17.3985 15.3882 16.9861C15.8007 16.5736 16.0324 16.0142 16.0324 15.4308V7.54956C16.0324 7.5131 16.0179 7.47814 15.9921 7.45236C15.9664 7.42658 15.9314 7.41209 15.8949 7.41209Z" fill="#597CE9"/>
<path d="M16.0164 6.17351L12.093 2.25012C12.0854 2.24254 12.0757 2.23738 12.0651 2.23529C12.0546 2.2332 12.0437 2.23428 12.0337 2.23839C12.0238 2.2425 12.0153 2.24946 12.0093 2.25839C12.0033 2.26732 12 2.27783 12 2.28859V5.83003C12 5.9458 12.046 6.05683 12.1278 6.13869C12.2097 6.22055 12.3207 6.26654 12.4365 6.26654H15.9779C15.9887 6.26649 15.9992 6.26327 16.0081 6.25727C16.0171 6.25127 16.024 6.24276 16.0281 6.23282C16.0323 6.22288 16.0333 6.21195 16.0312 6.20139C16.0292 6.19084 16.024 6.18114 16.0164 6.17351Z" fill="#597CE9"/>
<path d="M8.43727 18.6022L15.7271 18.6022C16.0552 18.6022 16.3699 18.4614 16.6019 18.2108C16.8339 17.9601 16.9643 17.6074 16.9643 17.0876L16.9645 8.12414C16.9645 8.0946 16.9753 8.06627 16.9947 8.04538C17.014 8.02449 17.0402 8.01276 17.0676 8.01276L18.4149 8.01278C18.8524 8.01278 19.272 8.20053 19.5813 8.53475C19.8907 8.86896 20.0645 9.32225 20.0645 9.7949L20.0643 19.9836C20.0643 20.4562 19.8905 20.9095 19.5811 21.2437C19.2718 21.5779 18.8522 21.7657 18.4147 21.7657L9.98374 21.7656C9.54625 21.7656 9.12668 21.5779 8.81732 21.2437C8.50797 20.9094 8.33417 20.4562 8.33417 19.9835V18.7136C8.33417 18.684 8.34503 18.6557 8.36437 18.6348C8.3837 18.6139 8.40993 18.6022 8.43727 18.6022Z" fill="#597CE9"/>
</svg>
