<svg id="csv-file-product" xmlns="http://www.w3.org/2000/svg" width="30.326" height="32" viewBox="0 0 30.326 32">
  <path id="Trazado_111" data-name="Trazado 111" d="M6.507,14.843H23.122V9.723H17.829a2.747,2.747,0,0,1-1.7-.677,2.461,2.461,0,0,1-.589-1.607V1.989H2.095a.148.148,0,0,0-.1.047.115.115,0,0,0-.049.109V29.865a.176.176,0,0,0,.046.107.125.125,0,0,0,.1.047H22.966c.046,0,.044-.023.069-.047s.085-.073.085-.107V26.959H6.507A1.961,1.961,0,0,1,4.571,24.99V16.809a1.957,1.957,0,0,1,1.936-1.966Zm5.25,6.6,1.611.495a3.03,3.03,0,0,1-.512,1.151,2.224,2.224,0,0,1-.866.7,3.2,3.2,0,0,1-1.316.234,3.781,3.781,0,0,1-1.585-.286,2.545,2.545,0,0,1-1.06-1.008,3.459,3.459,0,0,1-.448-1.846,3.168,3.168,0,0,1,.784-2.3,2.967,2.967,0,0,1,2.223-.8,2.985,2.985,0,0,1,1.767.461,2.713,2.713,0,0,1,.955,1.419l-1.618.365a1.336,1.336,0,0,0-.179-.4,1.066,1.066,0,0,0-.379-.328,1.055,1.055,0,0,0-.5-.115,1.078,1.078,0,0,0-.96.51,2.2,2.2,0,0,0-.251,1.187,2.3,2.3,0,0,0,.3,1.377,1.025,1.025,0,0,0,.845.372,1.006,1.006,0,0,0,.8-.3,1.851,1.851,0,0,0,.394-.875Zm2.2.474,1.744-.112a1.369,1.369,0,0,0,.23.656.964.964,0,0,0,.812.367.883.883,0,0,0,.6-.187.548.548,0,0,0,.013-.857,2.316,2.316,0,0,0-.937-.352A3.9,3.9,0,0,1,14.7,20.7a1.485,1.485,0,0,1-.52-1.167,1.6,1.6,0,0,1,.266-.878,1.753,1.753,0,0,1,.8-.651,3.662,3.662,0,0,1,1.462-.237,2.928,2.928,0,0,1,1.736.432,1.87,1.87,0,0,1,.712,1.372l-1.729.1a.974.974,0,0,0-.289-.6.916.916,0,0,0-.609-.187.743.743,0,0,0-.484.138.424.424,0,0,0-.161.336.335.335,0,0,0,.131.258,1.437,1.437,0,0,0,.612.221,7.625,7.625,0,0,1,1.724.534,1.808,1.808,0,0,1,.758.669,1.712,1.712,0,0,1,.236.9,1.949,1.949,0,0,1-.315,1.073,2,2,0,0,1-.884.745,3.514,3.514,0,0,1-1.429.253,2.912,2.912,0,0,1-2.1-.594,2.319,2.319,0,0,1-.661-1.5ZM19.7,17.871h1.921l1.339,4.351,1.321-4.351h1.864l-2.208,6.046h-1.99L19.7,17.871Zm5.347-3.028h2.543a1.959,1.959,0,0,1,1.936,1.969v8.182a1.961,1.961,0,0,1-1.936,1.969H25.051V30.49a1.518,1.518,0,0,1-.435,1.068,1.458,1.458,0,0,1-1.05.443H1.5a1.458,1.458,0,0,1-1.05-.443A1.508,1.508,0,0,1,.01,30.49V1.523A1.518,1.518,0,0,1,.445.456,1.476,1.476,0,0,1,1.5.013H16.533a.284.284,0,0,1,.1-.013.69.69,0,0,1,.448.18h.023a.232.232,0,0,1,.059.047l7.68,7.906a.741.741,0,0,1,.225.516.994.994,0,0,1-.023.169v6.026ZM17.3,7.283V2.328l5.488,5.651h-4.8a.688.688,0,0,1-.684-.7Z" transform="translate(-0.01)" fill="#3c4cca" fill-rule="evenodd"/>
</svg>
