<svg width="22" height="20" viewBox="0 0 22 20" fill="none" xmlns="http://www.w3.org/2000/svg">
<path d="M3.64176 4.06511C4.39085 4 5.33826 4 6.61111 4H8.38889C10.878 4 12.1226 4 13.0733 4.48693C13.9096 4.91524 14.5895 5.59868 15.0156 6.43929C15.5 7.39494 15.5 8.64596 15.5 11.148V13.5594C15.5 13.8093 15.5 13.9342 15.495 14.0398C15.4173 15.6899 14.4536 17.1034 13.0704 17.8113L14.4415 18.7893C15.3365 19.4277 16.5126 18.5058 16.1041 17.486C15.8147 16.7636 16.3475 15.9779 17.1266 15.9779H17.7283C19.8114 15.9779 21.5 14.2916 21.5 12.2114V7.98893C21.5 5.19254 21.5 3.79435 20.955 2.72627C20.4757 1.78676 19.7108 1.02292 18.77 0.544213C17.7004 0 16.3003 0 13.5 0H11.5C8.69974 0 7.2996 0 6.23005 0.544213C5.28924 1.02292 4.52433 1.78676 4.04497 2.72627C3.84788 3.11254 3.72207 3.54198 3.64176 4.06511Z" fill="#F9FAFE"/>
<path fill-rule="evenodd" clip-rule="evenodd" d="M14.0761 7.15232C14.5 7.99554 14.5 9.09938 14.5 11.3071V13.4348C14.5 13.6552 14.5 13.7655 14.4956 13.8586C14.4008 15.8891 12.7982 17.5136 10.795 17.6097C10.7031 17.6141 10.5818 17.6141 10.3392 17.6141L10.2769 17.6142C9.48339 17.6193 8.71041 17.8704 8.06175 18.3337L8.0205 18.3635L5.98993 19.8337C5.29383 20.3377 4.37911 19.6098 4.69681 18.8048C4.92186 18.2345 4.50751 17.6141 3.90154 17.6141H3.43351C1.81338 17.6141 0.5 16.2828 0.5 14.6406V11.3071C0.5 9.09938 0.5 7.99554 0.923864 7.15232C1.2967 6.4106 1.89163 5.80757 2.62337 5.42964C3.45525 5 4.54424 5 6.72222 5H8.27778C10.4558 5 11.5448 5 12.3766 5.42964C13.1084 5.80757 13.7033 6.4106 14.0761 7.15232ZM4.5 13C5.05228 13 5.5 12.5523 5.5 12C5.5 11.4477 5.05228 11 4.5 11C3.94772 11 3.5 11.4477 3.5 12C3.5 12.5523 3.94772 13 4.5 13ZM8.5 12C8.5 12.5523 8.05228 13 7.5 13C6.94772 13 6.5 12.5523 6.5 12C6.5 11.4477 6.94772 11 7.5 11C8.05228 11 8.5 11.4477 8.5 12ZM10.5 13C11.0523 13 11.5 12.5523 11.5 12C11.5 11.4477 11.0523 11 10.5 11C9.94771 11 9.5 11.4477 9.5 12C9.5 12.5523 9.94771 13 10.5 13Z" fill="#F9FAFE"/>
</svg>
