<svg width="24" height="24" viewBox="0 0 24 24" fill="none" xmlns="http://www.w3.org/2000/svg">
<path d="M19.9157 4.22417C19.9092 4.19259 19.8938 4.16351 19.8714 4.14036C19.8489 4.11721 19.8203 4.10094 19.7889 4.09346C17.6971 3.58202 12.8639 5.40454 10.2453 8.02206C9.77824 8.48534 9.35246 8.98843 8.97278 9.52565C8.16527 9.45422 7.35776 9.51386 6.66954 9.81386C4.72774 10.6685 4.16238 12.8985 4.00488 13.8578C3.99594 13.9103 3.99931 13.9642 4.01472 14.0152C4.03013 14.0662 4.05716 14.1129 4.09368 14.1516C4.1302 14.1904 4.17521 14.2202 4.22518 14.2386C4.27516 14.257 4.32872 14.2636 4.38167 14.2578L7.49991 13.9139C7.50213 14.149 7.51632 14.3838 7.54241 14.6175C7.5581 14.7797 7.63013 14.9314 7.74598 15.0461L8.95349 16.2507C9.06828 16.3664 9.21986 16.4384 9.38207 16.4543C9.61441 16.4803 9.84793 16.4945 10.0817 16.4968L9.73957 19.6111C9.73386 19.664 9.74049 19.7176 9.75895 19.7675C9.7774 19.8174 9.80717 19.8624 9.84592 19.8989C9.88467 19.9354 9.93135 19.9624 9.9823 19.9779C10.0332 19.9933 10.0871 19.9967 10.1396 19.9879C11.0971 19.8343 13.331 19.2689 14.1807 17.3271C14.4807 16.6389 14.5421 15.8353 14.4728 15.0318C15.0113 14.6521 15.5158 14.2262 15.9803 13.7589C18.6071 11.1453 20.4193 6.41991 19.9157 4.22417ZM13.3596 10.641C13.1197 10.4013 12.9564 10.0959 12.8901 9.76328C12.8239 9.43071 12.8578 9.08596 12.9875 8.77265C13.1172 8.45933 13.3369 8.19153 13.6189 8.00311C13.9008 7.81469 14.2323 7.71412 14.5714 7.71412C14.9105 7.71412 15.242 7.81469 15.5239 8.00311C15.8059 8.19153 16.0256 8.45933 16.1553 8.77265C16.285 9.08596 16.3189 9.43071 16.2527 9.76328C16.1864 10.0959 16.0231 10.4013 15.7832 10.641C15.6241 10.8003 15.4352 10.9267 15.2273 11.0129C15.0194 11.0991 14.7965 11.1435 14.5714 11.1435C14.3463 11.1435 14.1234 11.0991 13.9155 11.0129C13.7075 10.9267 13.5187 10.8003 13.3596 10.641Z" fill="#F9FAFE"/>
<path d="M8.87145 17.1233C8.67573 17.3194 8.3618 17.3958 7.98394 17.4611C7.135 17.6058 6.38536 16.8722 6.53786 16.014C6.59607 15.6886 6.76822 15.2326 6.87536 15.1254C6.89878 15.1024 6.91437 15.0727 6.91991 15.0404C6.92545 15.008 6.92067 14.9748 6.90624 14.9453C6.8918 14.9159 6.86846 14.8917 6.83952 14.8763C6.81057 14.8608 6.7775 14.8549 6.745 14.8593C6.27027 14.9174 5.82861 15.1327 5.49035 15.4708C4.6507 16.3111 4.57141 19.4294 4.57141 19.4294C4.57141 19.4294 7.69144 19.3501 8.53109 18.5097C8.87026 18.1717 9.08576 17.7294 9.14288 17.254C9.15609 17.1047 8.97431 17.0158 8.87145 17.1233Z" fill="#F9FAFE"/>
</svg>
