<svg width="24" height="24" viewBox="0 0 24 24" fill="none" xmlns="http://www.w3.org/2000/svg">
<path fill-rule="evenodd" clip-rule="evenodd" d="M3 12C3 7.02944 7.02944 3 12 3C16.9706 3 21 7.02944 21 12C21 16.9706 16.9706 21 12 21C7.02944 21 3 16.9706 3 12ZM14.6683 9.33165C14.9136 9.57687 14.9136 9.97444 14.6683 10.2196L9.93237 14.9556C9.68716 15.2008 9.28959 15.2008 9.04437 14.9556C8.79916 14.7104 8.79916 14.3128 9.04437 14.0676L13.7803 9.33165C14.0256 9.08644 14.4231 9.08644 14.6683 9.33165ZM9.48837 10.3256C9.02599 10.3256 8.65116 9.95075 8.65116 9.48837C8.65116 9.02599 9.02599 8.65116 9.48837 8.65116C9.95075 8.65116 10.3256 9.02599 10.3256 9.48837C10.3256 9.95075 9.95075 10.3256 9.48837 10.3256ZM14.5116 15.3488C14.0493 15.3488 13.6744 14.974 13.6744 14.5116C13.6744 14.0493 14.0493 13.6744 14.5116 13.6744C14.974 13.6744 15.3488 14.0493 15.3488 14.5116C15.3488 14.974 14.974 15.3488 14.5116 15.3488Z" fill="#F9FAFE"/>
</svg>
