<svg id="printer-filled" xmlns="http://www.w3.org/2000/svg" width="22.19" height="21.363" viewBox="0 0 22.19 21.363">
  <path id="Trazado_94" data-name="Trazado 94" d="M871.19,162.619v6.548a2.451,2.451,0,0,1-2.219,2.619h-2.219V167.2a.605.605,0,0,0-.549-.648H853.987a.605.605,0,0,0-.549.648v4.59h-2.219A2.451,2.451,0,0,1,849,169.167v-6.548A2.451,2.451,0,0,1,851.219,160h17.752A2.451,2.451,0,0,1,871.19,162.619Z" transform="translate(-849 -153.761)" fill="#222e8e"/>
  <rect id="Rectángulo_256" data-name="Rectángulo 256" width="10.786" height="6.857" rx="0.348" transform="translate(5.702 14.006)" fill="none" stroke="#475b9f" stroke-width="1"/>
  <path id="Trazado_62" data-name="Trazado 62" d="M853,157.527v-5.005a.616.616,0,0,1,.679-.522h10.968a.616.616,0,0,1,.679.522v5.005" transform="translate(-848.068 -152)" fill="#222e8e"/>
</svg>
