<svg width="22" height="22" viewBox="0 0 22 22" fill="none" xmlns="http://www.w3.org/2000/svg">
<path d="M20.8906 1.11863C20.6963 0.922058 20.4648 0.766114 20.2096 0.659885C19.9544 0.553657 19.6806 0.499267 19.4042 0.499883H13.6419C13.2639 0.500588 12.9014 0.650325 12.6331 0.916602L1.11358 12.4338C0.720513 12.8277 0.499756 13.3614 0.499756 13.9179C0.499756 14.4743 0.720513 15.008 1.11358 15.4019L6.59796 20.8863C6.99193 21.2795 7.52584 21.5004 8.08249 21.5004C8.63914 21.5004 9.17304 21.2795 9.56702 20.8863L21.0819 9.37379C21.3487 9.10593 21.4989 8.74357 21.5 8.36551V2.59988C21.5017 2.32491 21.4487 2.05235 21.3441 1.79805C21.2395 1.54375 21.0853 1.3128 20.8906 1.11863ZM17 6.49988C16.7033 6.49988 16.4133 6.41191 16.1666 6.24709C15.92 6.08226 15.7277 5.848 15.6142 5.57391C15.5006 5.29982 15.4709 4.99822 15.5288 4.70725C15.5867 4.41628 15.7296 4.149 15.9393 3.93922C16.1491 3.72944 16.4164 3.58658 16.7074 3.5287C16.9983 3.47083 17.2999 3.50053 17.574 3.61406C17.8481 3.72759 18.0824 3.91985 18.2472 4.16653C18.412 4.4132 18.5 4.70321 18.5 4.99988C18.5 5.39771 18.342 5.77924 18.0606 6.06054C17.7793 6.34185 17.3978 6.49988 17 6.49988Z" fill="white"/>
</svg>
