<svg id="truck" xmlns="http://www.w3.org/2000/svg" width="31.025" height="26.841" viewBox="0 0 31.025 26.841">
  <path id="Trazado_112" data-name="Trazado 112" d="M11.009,17.906a2.859,2.859,0,0,1-.88,2.055,3.077,3.077,0,0,1-4.249,0,2.839,2.839,0,0,1,0-4.11,3.077,3.077,0,0,1,4.249,0A2.859,2.859,0,0,1,11.009,17.906Zm14.022,0a2.859,2.859,0,0,1-.88,2.055,3.078,3.078,0,0,1-4.249,0,2.84,2.84,0,0,1,0-4.11,3.078,3.078,0,0,1,4.249,0A2.859,2.859,0,0,1,25.031,17.906Z" transform="translate(0.564 6.028)" fill="#f4f4f8"/>
  <path id="Trazado_113" data-name="Trazado 113" d="M3.939,4a1.926,1.926,0,0,0-1.371.575A1.978,1.978,0,0,0,2,5.965V25.613A1.978,1.978,0,0,0,2.568,27a1.927,1.927,0,0,0,1.371.575H5.975a4.924,4.924,0,0,1,1.683-2.826,4.8,4.8,0,0,1,6.136,0,4.924,4.924,0,0,1,1.683,2.826h2.036A1.926,1.926,0,0,0,18.884,27a1.978,1.978,0,0,0,.568-1.389V5.965a1.978,1.978,0,0,0-.568-1.389A1.926,1.926,0,0,0,17.512,4Zm20.6,5.894a1.926,1.926,0,0,0-1.371.575,1.978,1.978,0,0,0-.568,1.389V23.746a9.124,9.124,0,0,1,2.618-.01,4.812,4.812,0,0,1,1.752.725,4.878,4.878,0,0,1,1.344,1.349,4.948,4.948,0,0,1,.732,1.768h2.036A1.926,1.926,0,0,0,32.457,27a1.978,1.978,0,0,0,.568-1.389V15.789a1.978,1.978,0,0,0-.568-1.389l-3.878-3.93a1.926,1.926,0,0,0-1.371-.576Z" transform="translate(-2 -4)" fill="#f4f4f8"/>
</svg>
