<svg width="23" height="24" viewBox="0 0 23 24" fill="none" xmlns="http://www.w3.org/2000/svg">
<path d="M4.69668 5.31816H18.7592C18.9234 5.31809 19.0875 5.32851 19.2505 5.34937C19.1953 4.96167 19.0621 4.58917 18.859 4.25433C18.6559 3.91949 18.3871 3.62925 18.0688 3.4011C17.7506 3.17294 17.3894 3.01161 17.007 2.92683C16.6247 2.84204 16.2292 2.83556 15.8443 2.90776L4.2792 4.88223H4.26602C3.54007 5.02105 2.89451 5.43178 2.46118 6.03052C3.11403 5.56616 3.89553 5.31713 4.69668 5.31816Z" fill="white"/>
<path d="M18.7593 6.37488H4.69684C3.95117 6.37569 3.23627 6.67227 2.709 7.19954C2.18173 7.72681 1.88515 8.44171 1.88434 9.18738V17.6249C1.88515 18.3705 2.18173 19.0854 2.709 19.6127C3.23627 20.14 3.95117 20.4366 4.69684 20.4374H18.7593C19.505 20.4366 20.2199 20.14 20.7472 19.6127C21.2744 19.0854 21.571 18.3705 21.5718 17.6249V9.18738C21.571 8.44171 21.2744 7.72681 20.7472 7.19954C20.2199 6.67227 19.505 6.37569 18.7593 6.37488ZM16.6719 14.8124C16.3938 14.8124 16.1219 14.7299 15.8907 14.5754C15.6594 14.4209 15.4792 14.2012 15.3727 13.9443C15.2663 13.6873 15.2384 13.4046 15.2927 13.1318C15.347 12.859 15.4809 12.6084 15.6776 12.4118C15.8742 12.2151 16.1248 12.0812 16.3976 12.0269C16.6704 11.9726 16.9531 12.0005 17.2101 12.1069C17.467 12.2134 17.6867 12.3936 17.8412 12.6249C17.9957 12.8561 18.0782 13.128 18.0782 13.4061C18.0782 13.7791 17.93 14.1368 17.6663 14.4005C17.4026 14.6642 17.0449 14.8124 16.6719 14.8124Z" fill="white"/>
<path d="M1.90625 12.1514V7.77881C1.90625 6.82651 2.43359 5.22998 4.26392 4.88413C5.81738 4.59277 7.35547 4.59277 7.35547 4.59277C7.35547 4.59277 8.36621 5.2959 7.53125 5.2959C6.69629 5.2959 6.71826 6.37256 7.53125 6.37256C8.34424 6.37256 7.53125 7.40527 7.53125 7.40527L4.25732 11.1187L1.90625 12.1514Z" fill="white"/>
</svg>
