<svg width="91" height="25" viewBox="0 0 182 50" fill="none" xmlns="http://www.w3.org/2000/svg">
<path d="M0.90625 48.2567V0.997883C19.2779 0.0750182 39.1954 0.240278 39.0229 24.5585C39.2782 48.6218 19.4504 49.276 0.90625 48.2567ZM15.8478 42.0584C37.3182 44.2347 37.4494 5.35039 16.2896 7.25811H8.05621V42.0584H15.8478Z" fill="#1E1E1E"/>
<path d="M45.1168 30.6949C44.2266 6.3836 79.1271 6.3836 78.2437 30.6949C79.1133 54.9167 44.2335 54.9098 45.1168 30.6949ZM71.2456 30.6949C71.9357 14.0076 51.4385 14.0627 52.101 30.6949C51.4247 47.2583 71.9219 47.3064 71.2456 30.6742V30.6949Z" fill="#1E1E1E"/>
<path d="M85.8424 0.998047H92.7439V18.5324H93.1579C99.6728 5.91537 119.632 13.6289 118.272 30.5779C119.653 47.5476 99.8522 55.3714 93.1579 42.713H92.5782V48.2226H85.8286L85.8424 0.998047ZM101.895 43.0642C114.318 43.7529 114.58 17.4856 101.895 18.2088C89.4312 17.217 89.6796 44.0146 101.895 43.0642V43.0642Z" fill="#1E1E1E"/>
<path d="M123.793 30.7638C122.896 6.28726 158.79 5.81889 155.94 32.6095H130.653C129.873 43.5048 144.974 47.3479 148.928 38.2226L155.471 39.3933C149.977 55.9498 121.868 49.8892 123.793 30.7638ZM149.163 27.4442C149.377 14.6205 130.867 15.5916 130.708 27.4442H149.163Z" fill="#1E1E1E"/>
<path d="M162.994 12.8098H169.674V18.4435H170.047C171.558 13.4917 177.162 11.5563 182 12.4447V19.0426C176.762 17.3484 169.577 20.42 169.909 26.6183V48.2643H163.007L162.994 12.8098Z" fill="#1E1E1E"/>
</svg>
