<svg width="29.5" height="52.5" viewBox="0 0 59 105" fill="none" xmlns="http://www.w3.org/2000/svg">
<path d="M47.2019 83.5747C47.0439 86.2307 46.7467 88.8767 46.3115 91.5017C46.3115 91.5017 45.8906 98.0513 41.9154 100.035C38.1127 101.929 35.5315 104.801 29.6239 105H29.2581C23.3505 104.801 20.7693 101.929 16.9735 100.035C12.9983 98.0513 12.5705 91.5017 12.5705 91.5017C12.1353 88.8767 11.8381 86.2307 11.6802 83.5747C11.6802 81.9562 18.7887 73.3268 19.9619 71.6601C21.1351 69.9935 22.7914 70.1588 22.7914 70.9714C21.8459 73.9397 19.6237 83.2924 24.7376 84.0568L29.3547 81.9149V81.846L29.4721 81.8943L29.5825 81.846V81.9149L34.1926 84.0568C39.3065 83.3061 37.0843 73.9535 36.1457 70.9714C36.1457 70.1863 37.8298 70.021 38.9754 71.6601C40.121 73.2993 47.2019 81.9562 47.2019 83.5747Z" fill="#CFCFD3"/>
<path d="M12.5086 0C12.5086 0 9.58238 15.4339 6.65617 23.1474C3.72996 30.8609 -2.12935 38.5744 0.796858 61.7149C21.2044 38.2851 20.9766 28.6295 12.5086 0Z" fill="#1E1E1E"/>
<path d="M46.4223 0C46.4223 0 49.3485 15.4339 52.2816 23.1474C55.2147 30.8609 61.0671 38.5744 58.134 61.7149C37.7333 38.2851 37.9266 28.6295 46.4223 0Z" fill="#1E1E1E"/>
<path d="M17.2361 65.035C7.0703 66.6259 6.71143 55.0625 14.1374 54.5184C17.2982 54.0501 21.2873 57.1354 21.3977 60.6547C21.3977 63.4164 19.6378 65.035 17.2361 65.035Z" fill="#1E1E1E"/>
<path d="M41.6806 65.035C51.8464 66.6259 52.2121 55.0625 44.7793 54.5184C41.6184 54.0501 37.6294 57.1354 37.5259 60.6547C37.5397 63.4164 39.2927 65.035 41.6806 65.035Z" fill="#1E1E1E"/>
<path d="M19.4857 58.5396C19.4857 60.1443 16.9804 60.1443 17.008 58.5396C17.0356 56.9349 19.5133 56.928 19.4857 58.5396Z" fill="#F9FAFE"/>
<path d="M41.777 58.5395C41.777 60.1442 39.2719 60.1442 39.2926 58.5395C39.2926 58.2107 39.4234 57.8954 39.6564 57.6629C39.8894 57.4304 40.2054 57.2998 40.5349 57.2998C40.8644 57.2998 41.1803 57.4304 41.4133 57.6629C41.6462 57.8954 41.777 58.2107 41.777 58.5395V58.5395Z" fill="#F9FAFE"/>
<path d="M25.6835 86.6599C22.6262 83.9051 21.8946 78.8982 28.9548 78.1957C29.2967 78.1613 29.6412 78.1613 29.9831 78.1957C37.0432 78.8844 36.3048 83.9119 33.2474 86.6599C32.2152 87.6041 30.8658 88.1279 29.4655 88.1279C28.0652 88.1279 26.7157 87.6041 25.6835 86.6599Z" fill="#1E1E1E"/>
</svg>
