<svg width="126" height="47" viewBox="0 0 126 47" fill="none" xmlns="http://www.w3.org/2000/svg">
<path d="M44.1802 34.1339V12.9799C52.3865 12.5668 61.2834 12.6408 61.2063 23.5261C61.3204 34.2973 52.4636 34.5902 44.1802 34.1339ZM50.8544 31.3594C60.4449 32.3336 60.5035 14.9282 51.0517 15.7821H47.374V31.3594H50.8544Z" fill="#1E1E1E"/>
<path d="M63.9284 26.273C63.5307 15.3908 79.1203 15.3908 78.7257 26.273C79.1141 37.1151 63.5338 37.112 63.9284 26.273ZM75.5997 26.273C75.908 18.8034 66.7522 18.8281 67.0481 26.273C66.746 33.6871 75.9018 33.7086 75.5997 26.2637V26.273Z" fill="#1E1E1E"/>
<path d="M82.1199 12.98H85.2027V20.8287H85.3876C88.2978 15.1811 97.2132 18.6338 96.6059 26.2205C97.2225 33.8164 88.3779 37.3185 85.3876 31.6524H85.1287V34.1186H82.1138L82.1199 12.98ZM89.2905 31.8096C94.8395 32.1179 94.9566 20.3601 89.2905 20.6838C83.723 20.2399 83.834 32.235 89.2905 31.8096Z" fill="#1E1E1E"/>
<path d="M99.0719 26.3039C98.6712 15.3477 114.705 15.1381 113.431 27.1301H102.136C101.788 32.007 108.533 33.7273 110.299 29.6426L113.222 30.1666C110.768 37.5776 98.2119 34.8648 99.0719 26.3039ZM110.404 24.818C110.5 19.0779 102.232 19.5125 102.161 24.818H110.404Z" fill="#1E1E1E"/>
<path d="M116.583 18.2672H119.567V20.7889H119.733C120.408 18.5724 122.911 17.7061 125.072 18.1038V21.0571C122.733 20.2987 119.523 21.6736 119.671 24.4481V34.1373H116.589L116.583 18.2672Z" fill="#1E1E1E"/>
<path d="M21.0843 37.4097C21.0138 38.5986 20.881 39.7829 20.6866 40.958C20.6866 40.958 20.4986 43.8897 18.7229 44.7775C17.0243 45.6253 15.8714 46.9108 13.2325 47.0002H13.0691C10.4302 46.9108 9.27728 45.6253 7.58175 44.7775C5.80607 43.8897 5.61498 40.958 5.61498 40.958C5.4206 39.7829 5.28784 38.5986 5.21729 37.4097C5.21729 36.6852 8.39254 32.8225 8.91662 32.0765C9.44069 31.3305 10.1805 31.4045 10.1805 31.7682C9.75817 33.0969 8.76554 37.2833 11.0499 37.6255L13.1122 36.6667V36.6359L13.1647 36.6575L13.214 36.6359V36.6667L15.2733 37.6255C17.5576 37.2895 16.565 33.1031 16.1457 31.7682C16.1457 31.4168 16.8979 31.3428 17.4097 32.0765C17.9214 32.8102 21.0843 36.6852 21.0843 37.4097Z" fill="#CFCFD3"/>
<path d="M5.58741 0C5.58741 0 4.28032 6.90849 2.97322 10.3612C1.66612 13.8139 -0.951151 17.2666 0.355946 27.6247C9.47171 17.1371 9.36997 12.8151 5.58741 0Z" fill="#1E1E1E"/>
<path d="M20.7362 0C20.7362 0 22.0433 6.90849 23.3534 10.3612C24.6636 13.8139 27.2778 17.2666 25.9676 27.6247C16.855 17.1371 16.9413 12.8151 20.7362 0Z" fill="#1E1E1E"/>
<path d="M7.69913 29.1109C3.15821 29.823 2.99791 24.647 6.31497 24.4035C7.72688 24.1938 9.50873 25.5749 9.55806 27.1502C9.55806 28.3864 8.77194 29.1109 7.69913 29.1109Z" fill="#1E1E1E"/>
<path d="M18.618 29.1109C23.159 29.823 23.3224 24.647 20.0022 24.4035C18.5903 24.1938 16.8084 25.5749 16.7622 27.1502C16.7684 28.3864 17.5514 29.1109 18.618 29.1109Z" fill="#1E1E1E"/>
<path d="M8.70401 26.2034C8.70401 26.9217 7.58494 26.9217 7.59727 26.2034C7.6096 25.4852 8.71634 25.4821 8.70401 26.2034Z" fill="#F9FAFE"/>
<path d="M18.6611 26.2034C18.6611 26.9216 17.5421 26.9216 17.5513 26.2034C17.5513 26.0562 17.6098 25.915 17.7138 25.811C17.8179 25.7069 17.9591 25.6484 18.1062 25.6484C18.2534 25.6484 18.3945 25.7069 18.4986 25.811C18.6027 25.915 18.6611 26.0562 18.6611 26.2034Z" fill="#F9FAFE"/>
<path d="M11.4724 38.7905C10.1068 37.5574 9.77998 35.3162 12.9337 35.0018C13.0864 34.9864 13.2403 34.9864 13.393 35.0018C16.5467 35.3101 16.2168 37.5605 14.8511 38.7905C14.39 39.2132 13.7873 39.4476 13.1618 39.4476C12.5363 39.4476 11.9335 39.2132 11.4724 38.7905Z" fill="#1E1E1E"/>
</svg>
