<svg width="194" height="74" viewBox="0 0 194 74" fill="none" xmlns="http://www.w3.org/2000/svg">
<path d="M93.0771 50.0252V23.6206C103.316 23.105 114.416 23.1973 114.319 36.7844C114.462 50.2292 103.412 50.5947 93.0771 50.0252ZM101.404 46.562C113.369 47.778 113.443 26.0524 101.65 27.1183H97.0618V46.562H101.404Z" fill="#F9FAFE"/>
<path d="M117.716 40.2129C117.22 26.6296 136.67 26.6296 136.177 40.2129C136.662 53.7462 117.224 53.7423 117.716 40.2129ZM132.277 40.2129C132.662 30.8893 121.239 30.9201 121.608 40.2129C121.231 49.4672 132.654 49.4942 132.277 40.2014V40.2129Z" fill="#F9FAFE"/>
<path d="M140.412 23.6206H144.258V33.4175H144.489C148.12 26.368 159.243 30.6777 158.485 40.1476C159.254 49.6289 148.22 54.0002 144.489 46.9277H144.166V50.0061H140.404L140.412 23.6206ZM149.358 47.1239C156.281 47.5087 156.427 32.8326 149.358 33.2366C142.412 32.6825 142.55 47.655 149.358 47.1239Z" fill="#F9FAFE"/>
<path d="M161.562 40.2515C161.062 26.5758 181.066 26.3141 179.477 41.2827H165.385C164.95 47.3701 173.366 49.5174 175.57 44.4188L179.216 45.0729C176.154 54.3234 160.489 50.9372 161.562 40.2515ZM175.7 38.3967C175.82 31.2318 165.504 31.7744 165.416 38.3967H175.7Z" fill="#F9FAFE"/>
<path d="M183.408 30.2198H187.131V33.3675H187.339C188.181 30.6008 191.304 29.5194 194 30.0158V33.7022C191.081 32.7556 187.077 34.4718 187.262 37.9349V50.029H183.416L183.408 30.2198Z" fill="#F9FAFE"/>
<path d="M58.4346 0H15.5308C6.95336 0 0 6.95662 0 15.538V58.462C0 67.0434 6.95336 74 15.5308 74H58.4346C67.012 74 73.9653 67.0434 73.9653 58.462V15.538C73.9653 6.95662 67.012 0 58.4346 0Z" fill="#F9FAFE"/>
<path d="M46.9543 54.1138C46.8663 55.5978 46.7007 57.0762 46.4582 58.5428C46.4582 58.5428 46.2236 62.2022 44.0082 63.3104C41.889 64.3686 40.4505 65.9732 37.1582 66.0848H36.9543C33.662 65.9732 32.2236 64.3686 30.1082 63.3104C27.8928 62.2022 27.6544 58.5428 27.6544 58.5428C27.4119 57.0762 27.2462 55.5978 27.1582 54.1138C27.1582 53.2096 31.1197 48.3881 31.7736 47.4569C32.4274 46.5257 33.3504 46.618 33.3504 47.0721C32.8235 48.7306 31.5851 53.9561 34.4351 54.3832L37.0081 53.1865V53.148L37.0736 53.1749L37.1351 53.148V53.1865L39.7043 54.3832C42.5543 53.9638 41.3159 48.7383 40.7928 47.0721C40.7928 46.6334 41.7313 46.5411 42.3697 47.4569C43.0082 48.3727 46.9543 53.2096 46.9543 54.1138Z" fill="#CFCFD3"/>
<path d="M27.6194 7.41888C27.6194 7.41888 25.9887 16.0421 24.3579 20.3519C22.7271 24.6616 19.4618 28.9713 21.0925 41.9004C32.4656 28.8097 32.3387 23.4148 27.6194 7.41888Z" fill="#1E1E1E"/>
<path d="M46.5197 7.41888C46.5197 7.41888 48.1505 16.0421 49.7851 20.3519C51.4197 24.6616 54.6812 28.9713 53.0466 41.9004C41.6774 28.8097 41.7851 23.4148 46.5197 7.41888Z" fill="#1E1E1E"/>
<path d="M30.2543 43.7552C24.5889 44.6441 24.3889 38.1834 28.5273 37.8794C30.2889 37.6178 32.512 39.3416 32.5735 41.3079C32.5735 42.8509 31.5927 43.7552 30.2543 43.7552Z" fill="#1E1E1E"/>
<path d="M43.8774 43.7552C49.5428 44.6441 49.7466 38.1834 45.6043 37.8794C43.8428 37.6178 41.6197 39.3416 41.562 41.3079C41.5697 42.8509 42.5466 43.7552 43.8774 43.7552Z" fill="#1E1E1E"/>
<path d="M31.5079 40.1266C31.5079 41.0232 30.1117 41.0232 30.1271 40.1266C30.1425 39.2301 31.5233 39.2262 31.5079 40.1266Z" fill="#F9FAFE"/>
<path d="M43.931 40.1265C43.931 41.0231 42.5349 41.0231 42.5465 40.1265C42.5465 39.9428 42.6194 39.7666 42.7492 39.6367C42.879 39.5068 43.0552 39.4338 43.2388 39.4338C43.4224 39.4338 43.5985 39.5068 43.7283 39.6367C43.8581 39.7666 43.931 39.9428 43.931 40.1265Z" fill="#F9FAFE"/>
<path d="M34.9621 55.8378C33.2582 54.2986 32.8505 51.5012 36.7852 51.1087C36.9757 51.0894 37.1677 51.0894 37.3582 51.1087C41.2928 51.4935 40.8813 54.3024 39.1775 55.8378C38.6022 56.3653 37.8502 56.658 37.0698 56.658C36.2894 56.658 35.5374 56.3653 34.9621 55.8378Z" fill="#1E1E1E"/>
</svg>
