<svg width="120" height="144" viewBox="0 0 120 144" fill="none" xmlns="http://www.w3.org/2000/svg">
<path d="M0 142.557V111.176C12.1738 110.563 25.372 110.673 25.2576 126.821C25.4268 142.799 12.2881 143.234 0 142.557ZM9.90087 138.418C24.128 139.863 24.215 114.043 10.1936 115.31H4.73786V138.418H9.90087Z" fill="#F9FAFE"/>
<path d="M29.2958 130.895C28.7058 114.752 51.8324 114.752 51.247 130.895C51.8232 146.979 28.7104 146.975 29.2958 130.895ZM46.6097 130.895C47.0671 119.815 33.4847 119.851 33.9238 130.895C33.4756 141.894 47.0579 141.926 46.6097 130.882V130.895Z" fill="#F9FAFE"/>
<path d="M56.2819 111.176H60.855V122.819H61.1294C65.4464 114.441 78.6721 119.563 77.7712 130.818C78.6858 142.086 65.5653 147.281 61.1294 138.876H60.7453V142.534H56.2727L56.2819 111.176ZM66.9191 139.109C75.1508 139.566 75.3246 122.124 66.9191 122.604C58.6599 121.946 58.8245 139.74 66.9191 139.109Z" fill="#F9FAFE"/>
<path d="M81.43 130.941C80.8355 114.688 104.62 114.377 102.732 132.167H85.9757C85.4589 139.402 95.465 141.953 98.0854 135.894L102.421 136.671C98.7806 147.665 80.1541 143.641 81.43 130.941ZM98.241 128.737C98.3827 120.222 86.1175 120.866 86.0123 128.737H98.241Z" fill="#F9FAFE"/>
<path d="M107.406 119.019H111.832V122.76H112.079C113.081 119.472 116.794 118.187 120 118.777V123.158C116.529 122.033 111.768 124.072 111.988 128.188V142.562H107.415L107.406 119.019Z" fill="#F9FAFE"/>
<path d="M85.2068 0H34.4375C24.2877 0 16.0596 8.30359 16.0596 18.5466V69.7816C16.0596 80.0246 24.2877 88.3282 34.4375 88.3282H85.2068C95.3567 88.3282 103.585 80.0246 103.585 69.7816V18.5466C103.585 8.30359 95.3567 0 85.2068 0Z" fill="#F9FAFE"/>
<path d="M71.7988 64.3126C71.6942 66.0763 71.4972 67.8333 71.2089 69.5764C71.2089 69.5764 70.93 73.9254 68.2958 75.2425C65.776 76.5001 64.0656 78.4071 60.151 78.5398H59.9086C55.994 78.4071 54.2836 76.5001 51.7683 75.2425C49.1342 73.9254 48.8507 69.5764 48.8507 69.5764C48.5623 67.8333 48.3654 66.0763 48.2607 64.3126C48.2607 63.2379 52.9711 57.5078 53.7485 56.4011C54.526 55.2944 55.6235 55.4041 55.6235 55.9438C54.997 57.9148 53.5244 64.1252 56.9131 64.6328L59.9726 63.2105V63.1648L60.0504 63.1968L60.1235 63.1648V63.2105L63.1784 64.6328C66.5671 64.1343 65.0946 57.9239 64.4726 55.9438C64.4726 55.4224 65.5885 55.3127 66.3477 56.4011C67.1068 57.4895 71.7988 63.2379 71.7988 64.3126Z" fill="#CFCFD3"/>
<path d="M48.8097 8.81714C48.8097 8.81714 46.8707 19.0656 44.9316 24.1876C42.9926 29.3095 39.11 34.4315 41.049 49.7973C54.5719 34.2394 54.421 27.8278 48.8097 8.81714Z" fill="#1E1E1E"/>
<path d="M71.282 8.81714C71.282 8.81714 73.221 19.0656 75.1646 24.1876C77.1082 29.3095 80.9862 34.4315 79.0426 49.7973C65.5243 34.2394 65.6524 27.8278 71.282 8.81714Z" fill="#1E1E1E"/>
<path d="M51.9421 52.0017C45.2059 53.0581 44.9681 45.3797 49.8888 45.0184C51.9833 44.7074 54.6266 46.7562 54.6998 49.0931C54.6998 50.9269 53.5336 52.0017 51.9421 52.0017Z" fill="#1E1E1E"/>
<path d="M68.1403 52.0017C74.8765 53.0581 75.1189 45.3797 70.1936 45.0184C68.0991 44.7074 65.4558 46.7562 65.3872 49.0931C65.3964 50.9269 66.5579 52.0017 68.1403 52.0017Z" fill="#1E1E1E"/>
<path d="M53.4332 47.6891C53.4332 48.7547 51.7731 48.7547 51.7914 47.6891C51.8097 46.6236 53.4515 46.619 53.4332 47.6891Z" fill="#F9FAFE"/>
<path d="M68.204 47.6891C68.204 48.7546 66.544 48.7546 66.5577 47.6891C66.5577 47.4708 66.6444 47.2614 66.7988 47.107C66.9531 46.9526 67.1626 46.8659 67.3809 46.8659C67.5992 46.8659 67.8086 46.9526 67.9629 47.107C68.1173 47.2614 68.204 47.4708 68.204 47.6891Z" fill="#F9FAFE"/>
<path d="M57.5399 66.3614C55.514 64.5321 55.0292 61.2075 59.7076 60.741C59.9341 60.7182 60.1624 60.7182 60.389 60.741C65.0673 61.1983 64.578 64.5367 62.5521 66.3614C61.8681 66.9884 60.9739 67.3362 60.046 67.3362C59.1181 67.3362 58.2239 66.9884 57.5399 66.3614Z" fill="#1E1E1E"/>
</svg>
