<svg width="224" height="84" viewBox="0 0 224 84" fill="none" xmlns="http://www.w3.org/2000/svg">
<path d="M79.125 61.0054V23.1983C93.8223 22.46 109.756 22.5922 109.618 42.0468C109.823 61.2974 93.9603 61.8208 79.125 61.0054ZM91.0782 56.0467C108.255 57.7878 108.36 26.6803 91.4317 28.2065H84.845V56.0467H91.0782Z" fill="#1E1E1E"/>
<path d="M114.493 46.9559C113.781 27.5069 141.702 27.5069 140.995 46.9559C141.691 66.3333 113.787 66.3278 114.493 46.9559ZM135.396 46.9559C135.948 33.6061 119.551 33.6501 120.081 46.9559C119.54 60.2066 135.937 60.2452 135.396 46.9394V46.9559Z" fill="#1E1E1E"/>
<path d="M147.074 23.1982H152.595V37.2258H152.926C158.138 27.1321 174.106 33.3029 173.018 46.8621C174.122 60.4379 158.282 66.6969 152.926 56.5702H152.463V60.9779H147.063L147.074 23.1982ZM159.916 56.8512C169.854 57.4021 170.064 36.3883 159.916 36.9668C149.945 36.1734 150.144 57.6115 159.916 56.8512V56.8512Z" fill="#1E1E1E"/>
<path d="M177.434 47.0114C176.717 27.4301 205.432 27.0554 203.152 48.4879H182.922C182.299 57.2042 194.379 60.2786 197.542 52.9784L202.776 53.915C198.382 67.1601 175.894 62.3116 177.434 47.0114ZM197.73 44.3557C197.901 34.0967 183.094 34.8736 182.967 44.3557H197.73Z" fill="#1E1E1E"/>
<path d="M208.795 32.6476H214.139V37.1546H214.438C215.647 33.1932 220.13 31.6448 224 32.3556V37.6339C219.81 36.2785 214.062 38.7358 214.327 43.6945V61.0112H208.806L208.795 32.6476Z" fill="#1E1E1E"/>
<path d="M37.7616 66.8597C37.6352 68.9845 37.3975 71.1012 37.0493 73.2013C37.0493 73.2013 36.7126 78.4409 33.5324 80.0277C30.4903 81.5429 28.4253 83.8404 23.6992 84.0001H23.4066C18.6805 83.8404 16.6155 81.5429 13.5789 80.0277C10.3987 78.4409 10.0565 73.2013 10.0565 73.2013C9.70836 71.1012 9.47061 68.9845 9.34424 66.8597C9.34424 65.5649 15.031 58.6613 15.9696 57.328C16.9082 55.9947 18.2332 56.1269 18.2332 56.777C17.4768 59.1517 15.699 66.6338 19.7902 67.2454L23.4838 65.5318V65.4767L23.5778 65.5153L23.6661 65.4767V65.5318L27.3542 67.2454C31.4453 66.6448 29.6676 59.1627 28.9167 56.777C28.9167 56.1489 30.2639 56.0167 31.1804 57.328C32.0969 58.6393 37.7616 65.5649 37.7616 66.8597Z" fill="#CFCFD3"/>
<path d="M10.0069 0C10.0069 0 7.6659 12.3471 5.32494 18.5179C2.98397 24.6887 -1.70348 30.8595 0.637487 49.3719C16.9635 30.6281 16.7813 22.9036 10.0069 0Z" fill="#1E1E1E"/>
<path d="M37.1378 0C37.1378 0 39.4788 12.3471 41.8253 18.5179C44.1717 24.6887 48.8537 30.8595 46.5072 49.3719C30.1867 30.6281 30.3413 22.9036 37.1378 0Z" fill="#1E1E1E"/>
<path d="M13.7889 52.0277C5.65624 53.3004 5.36914 44.0497 11.3099 43.6144C13.8386 43.2398 17.0298 45.7081 17.1182 48.5235C17.1182 50.7328 15.7103 52.0277 13.7889 52.0277Z" fill="#1E1E1E"/>
<path d="M33.3447 52.0277C41.4774 53.3004 41.77 44.0497 35.8237 43.6144C33.295 43.2398 30.1038 45.7081 30.021 48.5235C30.032 50.7328 31.4344 52.0277 33.3447 52.0277Z" fill="#1E1E1E"/>
<path d="M15.5888 46.8321C15.5888 48.1158 13.5845 48.1158 13.6066 46.8321C13.6287 45.5483 15.6109 45.5428 15.5888 46.8321Z" fill="#F9FAFE"/>
<path d="M33.4217 46.8316C33.4217 48.1154 31.4176 48.1154 31.4342 46.8316C31.4342 46.5686 31.5388 46.3163 31.7252 46.1303C31.9116 45.9443 32.1644 45.8398 32.428 45.8398C32.6916 45.8398 32.9443 45.9443 33.1307 46.1303C33.3171 46.3163 33.4217 46.5686 33.4217 46.8316V46.8316Z" fill="#F9FAFE"/>
<path d="M20.5467 69.3276C18.1008 67.1237 17.5156 63.1183 23.1637 62.5563C23.4372 62.5288 23.7128 62.5288 23.9864 62.5563C29.6345 63.1073 29.0437 67.1293 26.5979 69.3276C25.772 70.083 24.6925 70.502 23.5723 70.502C22.452 70.502 21.3725 70.083 20.5467 69.3276Z" fill="#1E1E1E"/>
</svg>
