<svg xmlns="http://www.w3.org/2000/svg" width="354.364" height="57.784" viewBox="0 0 354.364 57.784">
  <g id="Grupo_39" data-name="Grupo 39" transform="translate(-242.324 -291.444)">
    <g id="FIG1" transform="translate(242.324 340.421)">
      <rect id="Rectángulo_5" data-name="Rectángulo 5" width="22.997" height="8.311" transform="translate(0.005 0.495)" fill="#f23850"/>
      <rect id="Rectángulo_6" data-name="Rectángulo 6" width="0.005" height="0.495" fill="#f23850"/>
    </g>
    <g id="FIG12" transform="translate(266.316 332.115)">
      <path id="Trazado_1" data-name="Trazado 1" d="M322.77,391.024v8.815h-26.6v-8.311h8.811v-8.8h8.575v8.3Z" transform="translate(-296.172 -382.727)" fill="#34c4cf"/>
    </g>
    <g id="FIG3" transform="translate(242.324 309.338)">
      <path id="Trazado_2" data-name="Trazado 2" d="M265.326,354.384V362.2h-23V331.607h8.311v22.776Z" transform="translate(-242.324 -331.607)" fill="#3c4cca"/>
    </g>
    <g id="FIG4" transform="translate(251.625 317.471)">
      <rect id="Rectángulo_7" data-name="Rectángulo 7" width="13.701" height="13.654" fill="#34c4cf"/>
    </g>
    <g id="FIG5" transform="translate(266.316 309.338)">
      <path id="Trazado_3" data-name="Trazado 3" d="M313.558,331.607v21.787h-9.565v8.8h-7.821V346.482h8.811V331.607Z" transform="translate(-296.172 -331.607)" fill="#ffbb34"/>
    </g>
    <g id="FIG6" transform="translate(251.625 309.338)">
      <path id="Trazado_4" data-name="Trazado 4" d="M285.711,331.607v13.885H277.89V338.75H263.2v-7.143Z" transform="translate(-263.199 -331.607)" fill="#f23850"/>
    </g>
    <g id="FIG7" transform="translate(251.625 300.028)">
      <rect id="Rectángulo_8" data-name="Rectángulo 8" width="32.077" height="8.321" transform="translate(0 0)" fill="#3c4cca"/>
    </g>
    <g id="FIG8" transform="translate(242.324 291.444)">
      <path id="Trazado_5" data-name="Trazado 5" d="M268.227,291.444v7.6H250.635v9.31h-8.311V291.444Z" transform="translate(-242.324 -291.444)" fill="#ffbb34"/>
    </g>
    <g id="FIG9" transform="translate(293.662 299.534)">
      <rect id="Rectángulo_9" data-name="Rectángulo 9" width="9.178" height="49.694" transform="translate(0)" fill="#f23850"/>
    </g>
    <g id="T" transform="translate(317.701 301.042)">
      <path id="Trazado_6" data-name="Trazado 6" d="M426.683,320.781H411.5v-7.8h38.838v7.8h-15.18v40.365h-8.479Z" transform="translate(-411.503 -312.986)" fill="#151829"/>
    </g>
    <g id="Texto" transform="translate(354.695 298.875)">
      <path id="Trazado_7" data-name="Trazado 7" d="M494.534,355.457v-.137c0-10.325,7.315-18.8,17.64-18.8,11.488,0,17.3,9.026,17.3,19.419,0,.752-.068,1.5-.137,2.325H502.806c.889,5.881,5.061,9.163,10.394,9.163,4.034,0,6.906-1.5,9.779-4.308l4.855,4.308a18.262,18.262,0,0,1-14.77,6.769C502.6,374.193,494.534,366.6,494.534,355.457Zm26.736-2.667c-.548-5.333-3.693-9.5-9.163-9.5-5.06,0-8.616,3.9-9.368,9.5Z" transform="translate(-494.534 -323.867)" fill="#151829"/>
      <path id="Trazado_8" data-name="Trazado 8" d="M589.817,351.987v-19.01h-4.581v-7.111h4.581v-9.915h8.274v9.915h9.71v7.111h-9.71v17.711c0,3.213,1.642,4.513,4.445,4.513a11.121,11.121,0,0,0,5.127-1.231v6.769a14.478,14.478,0,0,1-7.452,1.846C594.125,362.585,589.817,359.919,589.817,351.987Z" transform="translate(-544.824 -312.464)" fill="#151829"/>
      <path id="Trazado_9" data-name="Trazado 9" d="M654.606,337.337h8.274v8.137c2.257-5.4,6.427-9.094,12.787-8.82v8.753h-.479c-7.248,0-12.308,4.718-12.308,14.29V373.44h-8.274Z" transform="translate(-583.287 -323.934)" fill="#151829"/>
      <path id="Trazado_10" data-name="Trazado 10" d="M718.3,308.124h8.89v7.864H718.3Zm.342,13.4h8.274v36.1h-8.274Z" transform="translate(-618.601 -308.124)" fill="#151829"/>
      <path id="Trazado_11" data-name="Trazado 11" d="M755.285,368.825l3.693-5.607a20.259,20.259,0,0,0,11.83,4.444c3.555,0,5.607-1.5,5.607-3.9v-.135c0-2.8-3.829-3.762-8.069-5.061-5.334-1.5-11.282-3.692-11.282-10.6v-.136c0-6.838,5.675-11.009,12.855-11.009a25.034,25.034,0,0,1,13.265,4.1l-3.282,5.881c-3.487-2.12-7.18-3.419-10.188-3.419-3.214,0-5.06,1.5-5.06,3.624v.137c0,2.6,3.9,3.693,8.137,5.06,5.266,1.641,11.214,4.034,11.214,10.53v.137c0,7.589-5.88,11.35-13.4,11.35A25.361,25.361,0,0,1,755.285,368.825Z" transform="translate(-639.109 -324.037)" fill="#151829"/>
      <path id="Trazado_12" data-name="Trazado 12" d="M861.473,347.554H835.557l-1.231-2.667,27.351-33.848h3.214v33.438h7.794v3.076h-7.794v11.693h-3.419Zm0-3.076V316.168l-22.838,28.309Z" transform="translate(-682.934 -309.741)" fill="#151829"/>
      <path id="Trazado_13" data-name="Trazado 13" d="M944.826,311.809h15.932c15.044,0,25.437,10.325,25.437,23.8v.137c0,13.471-10.393,23.932-25.437,23.932H944.826Zm15.932,44.582c13.335,0,21.745-9.094,21.745-20.513v-.137c0-11.351-8.411-20.65-21.745-20.65H948.382v41.3Z" transform="translate(-744.201 -310.167)" fill="#151829"/>
    </g>
  </g>
</svg>
