<svg xmlns="http://www.w3.org/2000/svg" xmlns:xlink="http://www.w3.org/1999/xlink" width="96" height="96" viewBox="0 0 96 96">
  <defs>
    <filter id="Rect치ngulo_400" x="0" y="0" width="96" height="96" filterUnits="userSpaceOnUse">
      <feOffset dy="3" input="SourceAlpha"/>
      <feGaussianBlur stdDeviation="5" result="blur"/>
      <feFlood flood-color="#222e8e" flood-opacity="0.188"/>
      <feComposite operator="in" in2="blur"/>
      <feComposite in="SourceGraphic"/>
    </filter>
  </defs>
  <g id="chart-line-filled-home" transform="translate(-475 -704)">
    <g transform="matrix(1, 0, 0, 1, 475, 704)" filter="url(#Rect치ngulo_400)">
      <rect id="Rect치ngulo_400-2" data-name="Rect치ngulo 400" width="66" height="66" rx="33" transform="translate(81 78) rotate(180)" fill="#d69c29"/>
    </g>
    <g id="chart-line-filled" transform="translate(508.996 735)">
      <path id="chart-line-filled-2" data-name="chart-line-filled" d="M504.807,489.27H485.2a4.2,4.2,0,0,0-4.2,4.2v19.6a4.2,4.2,0,0,0,4.2,4.2h19.607a4.207,4.207,0,0,0,4.2-4.2v-19.6A4.207,4.207,0,0,0,504.807,489.27Zm-1.843,11.952-4.263,4.295v.094a1.754,1.754,0,1,1-3.509,0v-.094l-1.885-1.885h-.534L489.5,506.9v.178a1.76,1.76,0,1,1-1.76-1.76l3.509-3.509a1.76,1.76,0,1,1,3.519,0l2.021,2.053h.189l4.231-4.221a.508.508,0,0,1,0-.178,1.754,1.754,0,1,1,1.749,1.76Z" transform="translate(-481 -489.27)" fill="#f4f4f8"/>
    </g>
  </g>
</svg>
