<svg xmlns="http://www.w3.org/2000/svg" xmlns:xlink="http://www.w3.org/1999/xlink" width="96" height="96" viewBox="0 0 96 96">
  <defs>
    <filter id="Rect치ngulo_399" x="0" y="0" width="96" height="96" filterUnits="userSpaceOnUse">
      <feOffset dy="3" input="SourceAlpha"/>
      <feGaussianBlur stdDeviation="5" result="blur"/>
      <feFlood flood-color="#222e8e" flood-opacity="0.188"/>
      <feComposite operator="in" in2="blur"/>
      <feComposite in="SourceGraphic"/>
    </filter>
  </defs>
  <g id="clients-home" transform="translate(-475 -561)">
    <g transform="matrix(1, 0, 0, 1, 475, 561)" filter="url(#Rect치ngulo_399)">
      <rect id="Rect치ngulo_399-2" data-name="Rect치ngulo 399" width="66" height="66" rx="33" transform="translate(81 78) rotate(180)" fill="#34c4cf"/>
    </g>
    <g id="users" transform="translate(505.37 591)">
      <path id="users-2" data-name="users" d="M16.671,8.829a5.805,5.805,0,0,1-1.721,4.122,5.911,5.911,0,0,1-8.311,0,5.8,5.8,0,0,1,0-8.244,5.911,5.911,0,0,1,8.311,0A5.805,5.805,0,0,1,16.671,8.829Zm15.671,0a5.806,5.806,0,0,1-1.721,4.122,5.89,5.89,0,0,1-9.585-1.891A5.792,5.792,0,0,1,22.31,4.707a5.911,5.911,0,0,1,8.311,0A5.805,5.805,0,0,1,32.342,8.829ZM24.37,30.2a13.814,13.814,0,0,0,.137-1.943,13.474,13.474,0,0,0-2.938-8.413,9.863,9.863,0,0,1,9.794,0A9.756,9.756,0,0,1,34.948,23.4a9.655,9.655,0,0,1,1.312,4.858V30.2ZM10.794,18.544A9.835,9.835,0,0,1,17.72,21.39a9.675,9.675,0,0,1,2.869,6.87V30.2H1V28.259a9.675,9.675,0,0,1,2.869-6.87A9.835,9.835,0,0,1,10.794,18.544Z" transform="translate(-1 -3)" fill="#f4f4f8"/>
    </g>
  </g>
</svg>
