<svg xmlns="http://www.w3.org/2000/svg" width="44.8" height="56" viewBox="0 0 44.8 56">
  <g id="day-expenses" transform="translate(-348 -479)">
    <path id="u_calendar-alt" data-name="u calendar-alt" d="M370.4,529.4a2.8,2.8,0,1,0-1.98-.82A2.8,2.8,0,0,0,370.4,529.4Zm14,0a2.8,2.8,0,1,0-1.98-.82A2.8,2.8,0,0,0,384.4,529.4Zm0-11.2a2.8,2.8,0,1,0-1.98-.82A2.8,2.8,0,0,0,384.4,518.2Zm-14,0a2.8,2.8,0,1,0-1.98-.82A2.8,2.8,0,0,0,370.4,518.2Zm19.6-28h-2.8v-8.4a2.8,2.8,0,1,0-5.6,0v8.4H359.2v-8.4a2.8,2.8,0,1,0-5.6,0v8.4m39.2,42A2.8,2.8,0,0,1,390,535H350.8a2.8,2.8,0,0,1-2.8-2.8V507h44.8Zm0-30.8H348V493a2.8,2.8,0,0,1,2.8-2.8h2.8V493a2.8,2.8,0,1,0,5.6,0v-2.8h22.4V493a2.8,2.8,0,1,0,5.6,0v-2.8H390a2.8,2.8,0,0,1,2.8,2.8Zm-36.4,16.8a2.8,2.8,0,1,0-1.98-.82A2.8,2.8,0,0,0,356.4,518.2Zm0,11.2a2.8,2.8,0,1,0-1.98-.82A2.8,2.8,0,0,0,356.4,529.4Z" transform="translate(0 0)" fill="#ffbb34"/>
    <path id="Trazado_303" data-name="Trazado 303" d="M392.8,485.8v8.4H348v-8.4a2.808,2.808,0,0,1,2.8-2.8h2.8v2.8a2.8,2.8,0,1,0,5.6,0V483h22.4v2.8a2.8,2.8,0,1,0,5.6,0V483H390A2.808,2.808,0,0,1,392.8,485.8Z" transform="translate(0 7.2)" fill="#ffbb34"/>
    <path id="Trazado_304" data-name="Trazado 304" d="M348,489v25.2a2.808,2.808,0,0,0,2.8,2.8H390a2.808,2.808,0,0,0,2.8-2.8V489Zm8.4,11.2a2.773,2.773,0,0,1-2.8-2.8,2.8,2.8,0,1,1,2.8,2.8Z" transform="translate(0 18)" fill="#ffdd9a"/>
  </g>
</svg>
