<svg xmlns="http://www.w3.org/2000/svg" width="48.292" height="48.292" viewBox="0 0 48.292 48.292">
  <g id="delivered-boxes" transform="translate(-514 -589)">
    <path id="u_notebooks" data-name="u notebooks" d="M560.688,595.444A2.691,2.691,0,0,0,558,598.127v26.828A8.038,8.038,0,0,1,549.956,633H523.128a2.683,2.683,0,1,0,0,5.365h26.828a13.419,13.419,0,0,0,13.414-13.414V598.127A2.691,2.691,0,0,0,560.688,595.444Z" transform="translate(-1.079 -1.079)" fill="#9ea6e4"/>
    <path id="Trazado_297" data-name="Trazado 297" d="M544.269,589v18.273l-1.67-1.128c-2.9-2.135-2.9-2.135-5.941,0l-1.67,1.128V589Z" transform="translate(-3.513)" fill="#3c4cca"/>
    <path id="Trazado_298" data-name="Trazado 298" d="M551.56,592.13v31.3a3.139,3.139,0,0,1-3.13,3.13h-31.3a3.139,3.139,0,0,1-3.13-3.13v-31.3a3.139,3.139,0,0,1,3.13-3.13h9.39v21.91a3.139,3.139,0,0,0,3.13,3.13,3.2,3.2,0,0,0,2.035-.751l4.226-3.537,4.226,3.537a3.16,3.16,0,0,0,3.349.47,3.148,3.148,0,0,0,1.816-2.848V589h3.13A3.14,3.14,0,0,1,551.56,592.13Z" fill="#3c4cca"/>
  </g>
</svg>
