<svg xmlns="http://www.w3.org/2000/svg" width="77.453" height="68.304" viewBox="0 0 77.453 68.304">
  <g id="km-per-truck" transform="translate(-978.221 -401.416)">
    <path id="Trazado_294" data-name="Trazado 294" d="M41.9,14a4.9,4.9,0,0,0-3.489,1.464A5.035,5.035,0,0,0,36.963,19v30.25a23.219,23.219,0,0,1,6.662-.025,12.245,12.245,0,0,1,4.457,1.845A12.413,12.413,0,0,1,51.5,54.5,12.592,12.592,0,0,1,53.368,59h5.181a4.9,4.9,0,0,0,3.489-1.465A5.034,5.034,0,0,0,63.484,54V29a5.034,5.034,0,0,0-1.446-3.535l-9.869-10A4.9,4.9,0,0,0,48.68,14Z" transform="translate(992.19 402.414)" fill="#9ae2e7"/>
    <g id="Grupo_151" data-name="Grupo 151" transform="translate(978.221 401.416)">
      <g id="truck" transform="translate(0 0)">
        <path id="Trazado_112" data-name="Trazado 112" d="M20.293,22.4a7.275,7.275,0,0,1-2.24,5.23,7.831,7.831,0,0,1-10.813,0,7.226,7.226,0,0,1,0-10.459,7.831,7.831,0,0,1,10.813,0A7.275,7.275,0,0,1,20.293,22.4Zm32.683,0a7.275,7.275,0,0,1-2.239,5.23,7.832,7.832,0,0,1-10.814,0,7.226,7.226,0,0,1,0-10.459,7.832,7.832,0,0,1,10.814,0A7.275,7.275,0,0,1,52.976,22.4Z" transform="translate(9.159 38.513)" fill="#34c4cf"/>
        <path id="Trazado_113" data-name="Trazado 113" d="M6.935,4A4.9,4.9,0,0,0,3.445,5.464,5.034,5.034,0,0,0,2,9V59a5.034,5.034,0,0,0,1.445,3.536A4.9,4.9,0,0,0,6.935,64h5.181A12.531,12.531,0,0,1,16.4,56.809a12.212,12.212,0,0,1,15.614,0A12.531,12.531,0,0,1,36.295,64h5.181a4.9,4.9,0,0,0,3.489-1.465A5.034,5.034,0,0,0,46.411,59V9a5.035,5.035,0,0,0-1.445-3.536A4.9,4.9,0,0,0,41.476,4Z" transform="translate(-2 -4)" fill="#34c4cf"/>
      </g>
    </g>
  </g>
</svg>
