<svg xmlns="http://www.w3.org/2000/svg" width="55.801" height="56.658" viewBox="0 0 55.801 56.658">
  <g id="loaded-boxes" transform="translate(-938.462 -477.075)">
    <path id="u_layer-group" data-name="u layer-group" d="M993.939,509a2.8,2.8,0,0,0-3.752-1.195c-.056.055-.139.083-.194.139v.111l-23.628,13.426L942.737,507.94a2.768,2.768,0,1,0-2.974,4.67c.055.055.139.083.194.139L964.975,527.2a2.9,2.9,0,0,0,2.78,0l25.018-14.454A2.777,2.777,0,0,0,993.939,509Zm0-11.119a2.8,2.8,0,0,0-3.752-1.195c-.056.055-.139.083-.194.139v.111l-23.628,13.426-23.628-13.537a2.768,2.768,0,1,0-2.974,4.67c.055.055.139.083.194.14l25.018,14.454a2.9,2.9,0,0,0,2.78,0l25.018-14.454A2.779,2.779,0,0,0,993.939,497.877Z" transform="translate(0 6.175)" fill="#9ea6e4"/>
    <path id="Trazado_296" data-name="Trazado 296" d="M992.745,496.686l-25.018,14.454a2.9,2.9,0,0,1-2.78,0L939.93,496.686a2.805,2.805,0,0,1,0-4.81l25.018-14.427a2.762,2.762,0,0,1,2.78,0l25.018,14.427a2.487,2.487,0,0,1,1,1A2.777,2.777,0,0,1,992.745,496.686Z" transform="translate(0.027 0)" fill="#3c4cca"/>
  </g>
</svg>
