<svg xmlns="http://www.w3.org/2000/svg" width="45.198" height="56.497" viewBox="0 0 45.198 56.497">
  <g id="month-expenses" transform="translate(-324 -479)">
    <path id="u_calendar-alt" data-name="u calendar-alt" d="M346.6,529.848a2.826,2.826,0,1,0-2-.828A2.826,2.826,0,0,0,346.6,529.848Zm14.124,0a2.826,2.826,0,1,0-2-.828A2.826,2.826,0,0,0,360.723,529.848Zm0-11.3a2.826,2.826,0,1,0-2-.828A2.826,2.826,0,0,0,360.723,518.548Zm-14.124,0a2.826,2.826,0,1,0-2-.828A2.826,2.826,0,0,0,346.6,518.548ZM366.373,490.3h-2.825v-8.475a2.825,2.825,0,1,0-5.65,0V490.3H335.3v-8.475a2.825,2.825,0,1,0-5.65,0V490.3M369.2,532.672a2.826,2.826,0,0,1-2.825,2.825H326.825A2.826,2.826,0,0,1,324,532.672V507.249h45.2Zm0-31.074H324v-8.475a2.826,2.826,0,0,1,2.825-2.825h2.825v2.825a2.825,2.825,0,1,0,5.65,0V490.3h22.6v2.825a2.825,2.825,0,1,0,5.65,0V490.3h2.825a2.826,2.826,0,0,1,2.825,2.825Zm-36.723,16.949a2.826,2.826,0,1,0-2-.828A2.826,2.826,0,0,0,332.475,518.548Zm0,11.3a2.826,2.826,0,1,0-2-.828A2.826,2.826,0,0,0,332.475,529.848Z" transform="translate(0 0)" fill="#ffbb34"/>
    <path id="Trazado_301" data-name="Trazado 301" d="M369.2,485.825V494.3H324v-8.475A2.833,2.833,0,0,1,326.825,483h2.825v2.825a2.825,2.825,0,1,0,5.65,0V483h22.6v2.825a2.825,2.825,0,1,0,5.65,0V483h2.825A2.833,2.833,0,0,1,369.2,485.825Z" transform="translate(0 7.299)" fill="#ffbb34"/>
    <path id="Trazado_302" data-name="Trazado 302" d="M324,489v25.424a2.833,2.833,0,0,0,2.825,2.825h39.548a2.833,2.833,0,0,0,2.825-2.825V489Zm8.475,22.6a2.8,2.8,0,0,1-2.825-2.825,2.825,2.825,0,1,1,2.825,2.825Zm0-11.3a2.8,2.8,0,0,1-2.825-2.825,2.825,2.825,0,1,1,2.825,2.825ZM346.6,511.6a2.8,2.8,0,0,1-2.825-2.825A2.825,2.825,0,1,1,346.6,511.6Zm0-11.3a2.8,2.8,0,0,1-2.825-2.825A2.825,2.825,0,1,1,346.6,500.3Zm14.124,11.3a2.8,2.8,0,0,1-2.825-2.825,2.825,2.825,0,1,1,2.825,2.825Zm0-11.3a2.8,2.8,0,0,1-2.825-2.825,2.825,2.825,0,1,1,2.825,2.825Z" transform="translate(0 18.249)" fill="#ffdd9a"/>
  </g>
</svg>
