<svg xmlns="http://www.w3.org/2000/svg" xmlns:xlink="http://www.w3.org/1999/xlink" width="96" height="96" viewBox="0 0 96 96">
  <defs>
    <filter id="Rect치ngulo_341" x="0" y="0" width="96" height="96" filterUnits="userSpaceOnUse">
      <feOffset dy="3" input="SourceAlpha"/>
      <feGaussianBlur stdDeviation="5" result="blur"/>
      <feFlood flood-color="#222e8e" flood-opacity="0.188"/>
      <feComposite operator="in" in2="blur"/>
      <feComposite in="SourceGraphic"/>
    </filter>
  </defs>
  <g id="package-filled-home" transform="translate(-475 -275)">
    <g transform="matrix(1, 0, 0, 1, 475, 275)" filter="url(#Rect치ngulo_341)">
      <rect id="Rect치ngulo_341-2" data-name="Rect치ngulo 341" width="66" height="66" rx="33" transform="translate(81 78) rotate(180)" fill="#222e8e"/>
    </g>
    <g id="package-filled-home-2" data-name="package-filled-home" transform="translate(-91.645 -274.454)">
      <path id="Trazado_290" data-name="Trazado 290" d="M627.935,582.782V606.04a1.666,1.666,0,0,1-1.661,1.661H603.017a1.666,1.666,0,0,1-1.662-1.661V582.782a1.667,1.667,0,0,1,1.662-1.661H608v8.306a1.638,1.638,0,0,0,1.645,1.645,1.716,1.716,0,0,0,.9-.266l4.1-2.707,4.071,2.707a1.666,1.666,0,0,0,2.308-.482,1.712,1.712,0,0,0,.266-.9v-8.306h4.983A1.667,1.667,0,0,1,627.935,582.782Z" transform="translate(0 0.043)" fill="#f4f4f8"/>
      <path id="Trazado_291" data-name="Trazado 291" d="M616.414,581v6.513l-3.01-2.431a1.829,1.829,0,0,0-2.285,0l-3.011,2.431V581Z" transform="translate(2.384 0.164)" fill="#f4f4f8"/>
    </g>
  </g>
</svg>
