<svg xmlns="http://www.w3.org/2000/svg" width="17.553" height="21.232" viewBox="0 0 17.553 21.232">
  <g id="trash-2-filled" transform="translate(1)">
    <path id="Trazado_78" data-name="Trazado 78" d="M964,175h15.553" transform="translate(-964 -170.612)" fill="#222e8e" stroke="#222e8e" stroke-linecap="round" stroke-linejoin="round" stroke-width="2"/>
    <path id="Trazado_79" data-name="Trazado 79" d="M973.588,171h-3.817a1.884,1.884,0,0,0-1.908,1.846v1.846H975.5v-1.846A1.884,1.884,0,0,0,973.588,171ZM965,177.462v12.924a1.884,1.884,0,0,0,1.908,1.846h9.542a1.884,1.884,0,0,0,1.908-1.846V177.462Zm5.725,10.155a.955.955,0,0,1-1.909,0v-5.539a.955.955,0,0,1,1.909,0Zm3.817,0a.955.955,0,0,1-1.908,0v-5.539a.955.955,0,0,1,1.908,0Z" transform="translate(-963.903 -171)" fill="#222e8e"/>
  </g>
</svg>
