<svg xmlns="http://www.w3.org/2000/svg" width="63.168" height="64.083" viewBox="0 0 63.168 64.083">
  <g id="truck-gas" transform="translate(-980 -973.248)">
    <path id="Trazado_305" data-name="Trazado 305" d="M1039.047,1022.2v24.355a6.9,6.9,0,0,1-6.832,6.959H986.832a6.9,6.9,0,0,1-6.832-6.959v-46.231a6.9,6.9,0,0,1,6.832-6.959h23.907a4.736,4.736,0,0,1,3.38,1.426l23.529,23.966A4.915,4.915,0,0,1,1039.047,1022.2Z" transform="translate(0 -16.186)" fill="#f23850"/>
    <path id="Trazado_306" data-name="Trazado 306" d="M1203,996.26l-17.047-17.365a1.354,1.354,0,0,1,0-1.89l2.591-2.639a3.694,3.694,0,0,1,5.292,0l13.611,13.864a3.862,3.862,0,0,1,0,5.391l-2.591,2.639A1.3,1.3,0,0,1,1203,996.26Z" transform="translate(-165.376)" fill="#f99ca8"/>
  </g>
</svg>
