<svg xmlns="http://www.w3.org/2000/svg" width="36.344" height="40.169" viewBox="0 0 36.344 40.169">
  <g id="volume-efficiency" transform="translate(-974.948 -767.39)">
    <g id="Grupo_212" data-name="Grupo 212" transform="translate(974.948 767.39)">
      <path id="Trazado_310" data-name="Trazado 310" d="M308.278,387.263v19.109a3.729,3.729,0,0,1-1.913-.516L292.976,398.2a3.831,3.831,0,0,1-1.913-3.309v-15.3a3.739,3.739,0,0,1,.555-1.97Z" transform="translate(-291.063 -366.203)" fill="#f23850"/>
      <path id="Trazado_311" data-name="Trazado 311" d="M345.613,379.592v15.3A3.872,3.872,0,0,1,343.7,398.2l-13.389,7.651a3.831,3.831,0,0,1-1.913.516V387.263l16.661-9.641A3.735,3.735,0,0,1,345.613,379.592Z" transform="translate(-309.27 -366.203)" fill="#f23850"/>
      <path id="Trazado_312" data-name="Trazado 312" d="M327.5,364.84l-16.661,9.64-16.66-9.64a3.793,3.793,0,0,1,1.358-1.339l13.39-7.651a3.8,3.8,0,0,1,3.826,0l13.39,7.651A3.955,3.955,0,0,1,327.5,364.84Z" transform="translate(-292.582 -355.333)" fill="#f23850"/>
    </g>
  </g>
</svg>
