<svg xmlns="http://www.w3.org/2000/svg" width="41.947" height="42.369" viewBox="0 0 41.947 42.369">
  <g id="kg-icon" transform="translate(-1120.13 -402.242)">
    <g id="Grupo_215" data-name="Grupo 215" transform="translate(1120.13 402.245)">
      <g id="Grupo_213" data-name="Grupo 213" transform="translate(0 7.332)">
        <path id="Trazado_313" data-name="Trazado 313" d="M1224.26,528.988l-16.431-8.756a1.86,1.86,0,0,1-.862-2.275l5.958-16.414a1.812,1.812,0,0,1,2.5-1.027l10.563,5.418a1.849,1.849,0,0,1,1.032,1.626l-.089,19.752A1.822,1.822,0,0,1,1224.26,528.988Z" transform="translate(-1206.854 -494.168)" fill="#34c4cf"/>
        <path id="Trazado_314" data-name="Trazado 314" d="M1250.745,528.988l16.368-8.756a1.863,1.863,0,0,0,.859-2.275l-5.935-16.414a1.8,1.8,0,0,0-2.486-1.027l-10.521,5.418A1.85,1.85,0,0,0,1248,507.56l.089,19.752A1.815,1.815,0,0,0,1250.745,528.988Z" transform="translate(-1226.137 -494.168)" fill="#34c4cf"/>
        <path id="Trazado_315" data-name="Trazado 315" d="M1236.09,500.386l-11.15-5.451a.593.593,0,0,1,.031-1.077l11.086-4.284a.584.584,0,0,1,.451,0l11.128,4.286a.592.592,0,0,1,.032,1.076l-11.063,5.449A.582.582,0,0,1,1236.09,500.386Z" transform="translate(-1215.329 -489.529)" fill="#34c4cf"/>
      </g>
      <g id="Grupo_214" data-name="Grupo 214" transform="matrix(0.849, -0.212, 0.183, 0.977, 25.202, 24.537)">
        <path id="Trazado_316" data-name="Trazado 316" d="M2.351,4.665l-.8.9V7.789H0V0H1.547V3.531l.68-.969L4.139,0h1.9L3.377,3.461,6.119,7.789H4.279Z" fill="#fff"/>
        <path id="Trazado_317" data-name="Trazado 317" d="M0,2.959A3.481,3.481,0,0,1,.611.813,1.954,1.954,0,0,1,2.258,0,1.71,1.71,0,0,1,3.686.653L3.748.107H5.1V5.7a2.548,2.548,0,0,1-.332,1.322,2.168,2.168,0,0,1-.936.856,3.188,3.188,0,0,1-1.412.294,2.973,2.973,0,0,1-1.2-.254A2.126,2.126,0,0,1,.34,7.265L1,6.324a1.72,1.72,0,0,0,1.35.647,1.249,1.249,0,0,0,.923-.329,1.26,1.26,0,0,0,.33-.933V5.4A1.7,1.7,0,0,1,2.247,6,1.95,1.95,0,0,1,.621,5.187,3.484,3.484,0,0,1,0,3.023Zm1.49.115a2.175,2.175,0,0,0,.3,1.235.957.957,0,0,0,.835.447A1.025,1.025,0,0,0,3.6,4.226V1.788a1.023,1.023,0,0,0-.964-.53.962.962,0,0,0-.843.456A2.447,2.447,0,0,0,1.49,3.074Z" transform="translate(6.253 1.894)" fill="#fff"/>
      </g>
      <circle id="Elipse_17" data-name="Elipse 17" cx="6.435" cy="6.435" r="6.435" transform="matrix(0.731, 0, -0.107, 0.988, 17.333, 0.046)" fill="#9ae2e7"/>
    </g>
  </g>
</svg>
