<svg width="30" height="28" viewBox="0 0 30 28" fill="none" xmlns="http://www.w3.org/2000/svg">
<path d="M27.2867 1L16.4956 9.01353L18.5025 4.28423L27.2867 1Z" fill="#E17726" stroke="#E17726" stroke-linecap="round" stroke-linejoin="round"/>
<path d="M2.34912 1L13.0744 9.07922L11.1662 4.28424L2.34912 1Z" fill="#E27625" stroke="#E27625" stroke-linecap="round" stroke-linejoin="round"/>
<path d="M23.4047 19.5559L20.5095 23.9568L26.6946 25.6646L28.4383 19.6545L23.4047 19.5559Z" fill="#E27625" stroke="#E27625" stroke-linecap="round" stroke-linejoin="round"/>
<path d="M1.23047 19.6545L2.97415 25.6646L9.12637 23.9568L6.26411 19.5559L1.23047 19.6545Z" fill="#E27625" stroke="#E27625" stroke-linecap="round" stroke-linejoin="round"/>
<path d="M8.79745 12.1336L7.08667 14.7281L13.1731 14.9908L12.9757 8.42238L8.79745 12.1336Z" fill="#E27625" stroke="#E27625" stroke-linecap="round" stroke-linejoin="round"/>
<path d="M20.8715 12.1336L16.6274 8.3567L16.4958 14.9909L22.5823 14.7281L20.8715 12.1336Z" fill="#E27625" stroke="#E27625" stroke-linecap="round" stroke-linejoin="round"/>
<path d="M9.12622 23.9568L12.811 22.1833L9.61971 19.6873L9.12622 23.9568Z" fill="#E27625" stroke="#E27625" stroke-linecap="round" stroke-linejoin="round"/>
<path d="M16.8577 22.1833L20.5095 23.9568L20.016 19.6873L16.8577 22.1833Z" fill="#E27625" stroke="#E27625" stroke-linecap="round" stroke-linejoin="round"/>
<path d="M20.5095 23.9568L16.8577 22.1833L17.1538 24.548L17.1209 25.5661L20.5095 23.9568Z" fill="#D5BFB2" stroke="#D5BFB2" stroke-linecap="round" stroke-linejoin="round"/>
<path d="M9.12622 23.9568L12.5478 25.5661L12.5149 24.548L12.811 22.1833L9.12622 23.9568Z" fill="#D5BFB2" stroke="#D5BFB2" stroke-linecap="round" stroke-linejoin="round"/>
<path d="M12.6134 18.1109L9.55371 17.2241L11.6922 16.2389L12.6134 18.1109Z" fill="#233447" stroke="#233447" stroke-linecap="round" stroke-linejoin="round"/>
<path d="M17.0549 18.1109L17.9432 16.2389L20.1146 17.2241L17.0549 18.1109Z" fill="#233447" stroke="#233447" stroke-linecap="round" stroke-linejoin="round"/>
<path d="M9.12642 23.9568L9.65282 19.5559L6.26416 19.6545L9.12642 23.9568Z" fill="#CC6228" stroke="#CC6228" stroke-linecap="round" stroke-linejoin="round"/>
<path d="M20.0161 19.5559L20.5096 23.9568L23.4048 19.6545L20.0161 19.5559Z" fill="#CC6228" stroke="#CC6228" stroke-linecap="round" stroke-linejoin="round"/>
<path d="M22.5823 14.7281L16.4958 14.9908L17.0551 18.1109L17.9434 16.2389L20.1148 17.2241L22.5823 14.7281Z" fill="#CC6228" stroke="#CC6228" stroke-linecap="round" stroke-linejoin="round"/>
<path d="M9.55414 17.2241L11.6926 16.2389L12.6138 18.1109L13.1731 14.9908L7.08667 14.7281L9.55414 17.2241Z" fill="#CC6228" stroke="#CC6228" stroke-linecap="round" stroke-linejoin="round"/>
<path d="M7.08643 14.7281L9.61969 19.6873L9.55389 17.2241L7.08643 14.7281Z" fill="#E27525" stroke="#E27525" stroke-linecap="round" stroke-linejoin="round"/>
<path d="M20.1146 17.2241L20.0159 19.6873L22.582 14.7281L20.1146 17.2241Z" fill="#E27525" stroke="#E27525" stroke-linecap="round" stroke-linejoin="round"/>
<path d="M13.1728 14.9908L12.6135 18.1109L13.3044 21.8221L13.4689 16.9285L13.1728 14.9908Z" fill="#E27525" stroke="#E27525" stroke-linecap="round" stroke-linejoin="round"/>
<path d="M16.4956 14.9908L16.1995 16.9285L16.3311 21.8221L17.0549 18.1109L16.4956 14.9908Z" fill="#E27525" stroke="#E27525" stroke-linecap="round" stroke-linejoin="round"/>
<path d="M17.0548 18.1109L16.3311 21.8221L16.8574 22.1833L20.0158 19.6873L20.1145 17.2241L17.0548 18.1109Z" fill="#F5841F" stroke="#F5841F" stroke-linecap="round" stroke-linejoin="round"/>
<path d="M9.55371 17.2241L9.61951 19.6873L12.8108 22.1833L13.3043 21.8221L12.6134 18.1109L9.55371 17.2241Z" fill="#F5841F" stroke="#F5841F" stroke-linecap="round" stroke-linejoin="round"/>
<path d="M17.1208 25.5661L17.1537 24.548L16.8576 24.3181H12.7781L12.5149 24.548L12.5478 25.5661L9.12622 23.9568L10.3106 24.9421L12.7452 26.617H16.8905L19.3251 24.9421L20.5095 23.9568L17.1208 25.5661Z" fill="#C0AC9D" stroke="#C0AC9D" stroke-linecap="round" stroke-linejoin="round"/>
<path d="M16.8576 22.1833L16.3312 21.8221H13.3045L12.811 22.1833L12.5149 24.548L12.7781 24.3181H16.8576L17.1537 24.548L16.8576 22.1833Z" fill="#161616" stroke="#161616" stroke-linecap="round" stroke-linejoin="round"/>
<path d="M27.7474 9.53901L28.6686 5.10529L27.2868 1L16.8577 8.75079L20.8714 12.1336L26.5302 13.7757L27.7803 12.3306L27.2539 11.9365L28.1093 11.1483L27.4513 10.6228L28.3067 9.96596L27.7474 9.53901Z" fill="#763E1A" stroke="#763E1A" stroke-linecap="round" stroke-linejoin="round"/>
<path d="M1 5.10529L1.92119 9.53901L1.329 9.96596L2.18438 10.6228L1.52639 11.1483L2.41468 11.9365L1.85539 12.3306L3.10557 13.7757L8.7972 12.1336L12.8109 8.75079L2.34888 1L1 5.10529Z" fill="#763E1A" stroke="#763E1A" stroke-linecap="round" stroke-linejoin="round"/>
<path d="M26.53 13.7757L20.8713 12.1336L22.582 14.7281L20.0159 19.6873L23.4045 19.6545H28.4382L26.53 13.7757Z" fill="#F5841F" stroke="#F5841F" stroke-linecap="round" stroke-linejoin="round"/>
<path d="M8.79737 12.1336L3.10575 13.7757L1.23047 19.6545H6.26411L9.61986 19.6873L7.0866 14.7281L8.79737 12.1336Z" fill="#F5841F" stroke="#F5841F" stroke-linecap="round" stroke-linejoin="round"/>
<path d="M16.4957 14.9908L16.8576 8.7508L18.5026 4.28424H11.166L12.811 8.7508L13.1729 14.9908L13.3045 16.9614V21.8221H16.3312V16.9614L16.4957 14.9908Z" fill="#F5841F" stroke="#F5841F" stroke-linecap="round" stroke-linejoin="round"/>
</svg>
