<svg width="141" height="28" viewBox="0 0 141 28" fill="none" xmlns="http://www.w3.org/2000/svg">
<path d="M124.669 13.8742C123.946 13.3816 123.156 13.0531 122.366 12.6262C121.873 12.3634 121.347 12.1007 120.919 11.7394C120.195 11.1483 120.327 9.96595 121.116 9.44047C122.202 8.71794 124.011 9.11204 124.209 10.59C124.209 10.6228 124.242 10.6556 124.275 10.6556H125.92C125.953 10.6556 125.985 10.6228 125.985 10.59C125.887 9.57184 125.492 8.71793 124.768 8.15961C124.077 7.63414 123.288 7.3714 122.432 7.3714C118.09 7.3714 117.695 11.9693 120.031 13.4144C120.294 13.5786 122.597 14.7281 123.419 15.2536C124.242 15.7462 124.472 16.6658 124.143 17.3883C123.814 18.0452 122.992 18.505 122.169 18.4393C121.248 18.3736 120.557 17.881 120.294 17.1256C120.261 16.9942 120.228 16.7315 120.228 16.6001C120.228 16.5673 120.195 16.5344 120.162 16.5344H118.386C118.353 16.5344 118.32 16.5673 118.32 16.6001C118.32 17.8809 118.649 18.6035 119.504 19.2603C120.327 19.8843 121.215 20.1471 122.169 20.1471C124.604 20.1471 125.854 18.7677 126.117 17.3555C126.314 15.9761 125.92 14.7281 124.669 13.8742Z" fill="#F9FAFE"/>
<path d="M47.1251 7.63414H46.3355H45.4802C45.4473 7.63414 45.4144 7.66698 45.4144 7.66698L43.9339 12.4948C43.901 12.5605 43.8352 12.5605 43.8023 12.4948L42.3218 7.66698C42.3218 7.63414 42.2889 7.63414 42.256 7.63414H41.4006H40.611H39.5582C39.5253 7.63414 39.4924 7.66698 39.4924 7.69982V20.0157C39.4924 20.0485 39.5253 20.0814 39.5582 20.0814H41.3348C41.3677 20.0814 41.4006 20.0485 41.4006 20.0157V10.6556C41.4006 10.59 41.4993 10.5571 41.5322 10.6228L43.0127 15.4835L43.1114 15.8119C43.1114 15.8447 43.1443 15.8447 43.1772 15.8447H44.559C44.5919 15.8447 44.6248 15.8119 44.6248 15.8119L44.7235 15.4835L46.2039 10.6228C46.2368 10.5571 46.3355 10.5571 46.3355 10.6556V20.0157C46.3355 20.0485 46.3684 20.0814 46.4013 20.0814H48.1779C48.2108 20.0814 48.2437 20.0485 48.2437 20.0157V7.69982C48.2437 7.66698 48.2108 7.63414 48.1779 7.63414H47.1251Z" fill="#F9FAFE"/>
<path d="M97.33 7.63414C97.2971 7.63414 97.2642 7.66698 97.2642 7.66698L95.7837 12.4948C95.7508 12.5605 95.685 12.5605 95.6521 12.4948L94.1716 7.66698C94.1716 7.63414 94.1387 7.63414 94.1058 7.63414H91.3751C91.3422 7.63414 91.3093 7.66698 91.3093 7.69982V20.0157C91.3093 20.0485 91.3422 20.0814 91.3751 20.0814H93.1517C93.1846 20.0814 93.2175 20.0485 93.2175 20.0157V10.6556C93.2175 10.59 93.3162 10.5571 93.3491 10.6228L94.8296 15.4835L94.9283 15.8119C94.9283 15.8447 94.9612 15.8447 94.9941 15.8447H96.3759C96.4088 15.8447 96.4417 15.8119 96.4417 15.8119L96.5404 15.4835L98.0208 10.6228C98.0537 10.5571 98.1525 10.5571 98.1525 10.6556V20.0157C98.1525 20.0485 98.1853 20.0814 98.2182 20.0814H99.9948C100.028 20.0814 100.061 20.0485 100.061 20.0157V7.69982C100.061 7.66698 100.028 7.63414 99.9948 7.63414H97.33Z" fill="#F9FAFE"/>
<path d="M74.3003 7.63414H70.9774H69.2009H65.8451C65.8122 7.63414 65.7793 7.66698 65.7793 7.69982V9.24341C65.7793 9.27626 65.8122 9.3091 65.8451 9.3091H69.1022V20.0157C69.1022 20.0485 69.1351 20.0814 69.168 20.0814H70.9445C70.9774 20.0814 71.0103 20.0485 71.0103 20.0157V9.3091H74.2674C74.3003 9.3091 74.3332 9.27626 74.3332 9.24341V7.69982C74.3661 7.66698 74.3332 7.63414 74.3003 7.63414Z" fill="#F9FAFE"/>
<path d="M84.828 20.0814H86.4401C86.473 20.0814 86.5059 20.0486 86.5059 19.9829L83.1501 7.63415C83.1501 7.60131 83.1172 7.6013 83.0843 7.6013H82.4592H81.3736H80.7485C80.7156 7.6013 80.6827 7.63415 80.6827 7.63415L77.3269 19.9829C77.3269 20.0157 77.3598 20.0814 77.3927 20.0814H79.0048C79.0377 20.0814 79.0706 20.0486 79.0706 20.0486L80.0576 16.4359C80.0576 16.4031 80.0905 16.4031 80.1234 16.4031H83.7094C83.7423 16.4031 83.7752 16.4359 83.7752 16.4359L84.7622 20.0486C84.7622 20.0486 84.7951 20.0814 84.828 20.0814ZM80.5511 14.6296L81.867 9.80174C81.8999 9.73606 81.9657 9.73606 81.9986 9.80174L83.3146 14.6296C83.3146 14.6624 83.2817 14.7281 83.2488 14.7281H80.6498C80.584 14.7281 80.5511 14.6624 80.5511 14.6296Z" fill="#F9FAFE"/>
<path d="M112.529 20.0814H114.142C114.174 20.0814 114.207 20.0486 114.207 19.9829L110.852 7.63415C110.852 7.60131 110.819 7.6013 110.786 7.6013H110.161H109.075H108.45C108.417 7.6013 108.384 7.63415 108.384 7.63415L105.028 19.9829C105.028 20.0157 105.061 20.0814 105.094 20.0814H106.706C106.739 20.0814 106.772 20.0486 106.772 20.0486L107.759 16.4359C107.759 16.4031 107.792 16.4031 107.825 16.4031H111.411C111.444 16.4031 111.477 16.4359 111.477 16.4359L112.464 20.0486C112.464 20.0486 112.497 20.0814 112.529 20.0814ZM108.252 14.6296L109.568 9.80174C109.601 9.73606 109.667 9.73606 109.7 9.80174L111.016 14.6296C111.016 14.6624 110.983 14.7281 110.95 14.7281H108.351C108.285 14.7281 108.252 14.6624 108.252 14.6296Z" fill="#F9FAFE"/>
<path d="M55.4817 18.2422V14.4325C55.4817 14.3997 55.5146 14.3668 55.5475 14.3668H60.3179C60.3508 14.3668 60.3837 14.334 60.3837 14.3011V12.7575C60.3837 12.7247 60.3508 12.6919 60.3179 12.6919H55.5475C55.5146 12.6919 55.4817 12.659 55.4817 12.6262V9.37478C55.4817 9.34194 55.5146 9.3091 55.5475 9.3091H60.943C60.9759 9.3091 61.0088 9.27626 61.0088 9.24341V7.69982C61.0088 7.66698 60.9759 7.63414 60.943 7.63414H55.4817H53.6393C53.6064 7.63414 53.5735 7.66698 53.5735 7.69982V9.3091V12.7247V14.3997V18.3407V20.0157C53.5735 20.0485 53.6064 20.0814 53.6393 20.0814H55.4817H61.1733C61.2062 20.0814 61.2391 20.0485 61.2391 20.0157V18.4064C61.2391 18.3736 61.2062 18.3407 61.1733 18.3407H55.5146C55.5146 18.3079 55.4817 18.2751 55.4817 18.2422Z" fill="#F9FAFE"/>
<path d="M140.988 19.95L134.803 13.5786C134.77 13.5458 134.77 13.5129 134.803 13.4801L140.363 7.69983C140.396 7.66699 140.363 7.6013 140.33 7.6013H138.06C138.027 7.6013 138.027 7.60131 138.027 7.63415L133.289 12.5605C133.256 12.5933 133.191 12.5605 133.191 12.5277V7.73267C133.191 7.69983 133.158 7.66699 133.125 7.66699H131.315C131.282 7.66699 131.25 7.69983 131.25 7.73267V20.0486C131.25 20.0814 131.282 20.1142 131.315 20.1142H133.092C133.125 20.1142 133.158 20.0814 133.158 20.0486V14.6296C133.158 14.5639 133.223 14.531 133.256 14.5967L138.586 20.1142L138.619 20.1471H140.889C140.988 20.0814 141.021 19.9829 140.988 19.95Z" fill="#F9FAFE"/>
<path d="M27.2867 1L16.4956 9.01353L18.5025 4.28423L27.2867 1Z" fill="#E17726" stroke="#E17726" stroke-linecap="round" stroke-linejoin="round"/>
<path d="M2.34912 1L13.0744 9.07922L11.1662 4.28424L2.34912 1Z" fill="#E27625" stroke="#E27625" stroke-linecap="round" stroke-linejoin="round"/>
<path d="M23.4047 19.5559L20.5095 23.9568L26.6946 25.6646L28.4383 19.6545L23.4047 19.5559Z" fill="#E27625" stroke="#E27625" stroke-linecap="round" stroke-linejoin="round"/>
<path d="M1.23047 19.6545L2.97415 25.6646L9.12637 23.9568L6.26411 19.5559L1.23047 19.6545Z" fill="#E27625" stroke="#E27625" stroke-linecap="round" stroke-linejoin="round"/>
<path d="M8.79745 12.1336L7.08667 14.7281L13.1731 14.9908L12.9757 8.42238L8.79745 12.1336Z" fill="#E27625" stroke="#E27625" stroke-linecap="round" stroke-linejoin="round"/>
<path d="M20.8715 12.1336L16.6274 8.3567L16.4958 14.9909L22.5823 14.7281L20.8715 12.1336Z" fill="#E27625" stroke="#E27625" stroke-linecap="round" stroke-linejoin="round"/>
<path d="M9.12622 23.9568L12.811 22.1833L9.61971 19.6873L9.12622 23.9568Z" fill="#E27625" stroke="#E27625" stroke-linecap="round" stroke-linejoin="round"/>
<path d="M16.8577 22.1833L20.5095 23.9568L20.016 19.6873L16.8577 22.1833Z" fill="#E27625" stroke="#E27625" stroke-linecap="round" stroke-linejoin="round"/>
<path d="M20.5095 23.9568L16.8577 22.1833L17.1538 24.548L17.1209 25.5661L20.5095 23.9568Z" fill="#D5BFB2" stroke="#D5BFB2" stroke-linecap="round" stroke-linejoin="round"/>
<path d="M9.12622 23.9568L12.5478 25.5661L12.5149 24.548L12.811 22.1833L9.12622 23.9568Z" fill="#D5BFB2" stroke="#D5BFB2" stroke-linecap="round" stroke-linejoin="round"/>
<path d="M12.6134 18.1109L9.55371 17.2241L11.6922 16.2389L12.6134 18.1109Z" fill="#233447" stroke="#233447" stroke-linecap="round" stroke-linejoin="round"/>
<path d="M17.0549 18.1109L17.9432 16.2389L20.1146 17.2241L17.0549 18.1109Z" fill="#233447" stroke="#233447" stroke-linecap="round" stroke-linejoin="round"/>
<path d="M9.12642 23.9568L9.65282 19.5559L6.26416 19.6545L9.12642 23.9568Z" fill="#CC6228" stroke="#CC6228" stroke-linecap="round" stroke-linejoin="round"/>
<path d="M20.0161 19.5559L20.5096 23.9568L23.4048 19.6545L20.0161 19.5559Z" fill="#CC6228" stroke="#CC6228" stroke-linecap="round" stroke-linejoin="round"/>
<path d="M22.5823 14.7281L16.4958 14.9908L17.0551 18.1109L17.9434 16.2389L20.1148 17.2241L22.5823 14.7281Z" fill="#CC6228" stroke="#CC6228" stroke-linecap="round" stroke-linejoin="round"/>
<path d="M9.55414 17.2241L11.6926 16.2389L12.6138 18.1109L13.1731 14.9908L7.08667 14.7281L9.55414 17.2241Z" fill="#CC6228" stroke="#CC6228" stroke-linecap="round" stroke-linejoin="round"/>
<path d="M7.08643 14.7281L9.61969 19.6873L9.55389 17.2241L7.08643 14.7281Z" fill="#E27525" stroke="#E27525" stroke-linecap="round" stroke-linejoin="round"/>
<path d="M20.1146 17.2241L20.0159 19.6873L22.582 14.7281L20.1146 17.2241Z" fill="#E27525" stroke="#E27525" stroke-linecap="round" stroke-linejoin="round"/>
<path d="M13.1728 14.9908L12.6135 18.1109L13.3044 21.8221L13.4689 16.9285L13.1728 14.9908Z" fill="#E27525" stroke="#E27525" stroke-linecap="round" stroke-linejoin="round"/>
<path d="M16.4956 14.9908L16.1995 16.9285L16.3311 21.8221L17.0549 18.1109L16.4956 14.9908Z" fill="#E27525" stroke="#E27525" stroke-linecap="round" stroke-linejoin="round"/>
<path d="M17.0548 18.1109L16.3311 21.8221L16.8574 22.1833L20.0158 19.6873L20.1145 17.2241L17.0548 18.1109Z" fill="#F5841F" stroke="#F5841F" stroke-linecap="round" stroke-linejoin="round"/>
<path d="M9.55371 17.2241L9.61951 19.6873L12.8108 22.1833L13.3043 21.8221L12.6134 18.1109L9.55371 17.2241Z" fill="#F5841F" stroke="#F5841F" stroke-linecap="round" stroke-linejoin="round"/>
<path d="M17.1208 25.5661L17.1537 24.548L16.8576 24.3181H12.7781L12.5149 24.548L12.5478 25.5661L9.12622 23.9568L10.3106 24.9421L12.7452 26.617H16.8905L19.3251 24.9421L20.5095 23.9568L17.1208 25.5661Z" fill="#C0AC9D" stroke="#C0AC9D" stroke-linecap="round" stroke-linejoin="round"/>
<path d="M16.8576 22.1833L16.3312 21.8221H13.3045L12.811 22.1833L12.5149 24.548L12.7781 24.3181H16.8576L17.1537 24.548L16.8576 22.1833Z" fill="#161616" stroke="#161616" stroke-linecap="round" stroke-linejoin="round"/>
<path d="M27.7474 9.53901L28.6686 5.10529L27.2868 1L16.8577 8.75079L20.8714 12.1336L26.5302 13.7757L27.7803 12.3306L27.2539 11.9365L28.1093 11.1483L27.4513 10.6228L28.3067 9.96596L27.7474 9.53901Z" fill="#763E1A" stroke="#763E1A" stroke-linecap="round" stroke-linejoin="round"/>
<path d="M1 5.10529L1.92119 9.53901L1.329 9.96596L2.18438 10.6228L1.52639 11.1483L2.41468 11.9365L1.85539 12.3306L3.10557 13.7757L8.7972 12.1336L12.8109 8.75079L2.34888 1L1 5.10529Z" fill="#763E1A" stroke="#763E1A" stroke-linecap="round" stroke-linejoin="round"/>
<path d="M26.53 13.7757L20.8713 12.1336L22.582 14.7281L20.0159 19.6873L23.4045 19.6545H28.4382L26.53 13.7757Z" fill="#F5841F" stroke="#F5841F" stroke-linecap="round" stroke-linejoin="round"/>
<path d="M8.79737 12.1336L3.10575 13.7757L1.23047 19.6545H6.26411L9.61986 19.6873L7.0866 14.7281L8.79737 12.1336Z" fill="#F5841F" stroke="#F5841F" stroke-linecap="round" stroke-linejoin="round"/>
<path d="M16.4957 14.9908L16.8576 8.7508L18.5026 4.28424H11.166L12.811 8.7508L13.1729 14.9908L13.3045 16.9614V21.8221H16.3312V16.9614L16.4957 14.9908Z" fill="#F5841F" stroke="#F5841F" stroke-linecap="round" stroke-linejoin="round"/>
</svg>
